<?xml version="1.0" standalone="no"?>
<!DOCTYPE svg PUBLIC "-//W3C//DTD SVG 1.1//EN" "http://www.w3.org/Graphics/SVG/1.1/DTD/svg11.dtd" >
<svg>
<metadata>
Created by FontForge 20110222 at Sun Feb 10 13:17:05 2013
 By www-data
Copyright (c) 2011 by Tarek Atrissi Design. All rights reserved.
</metadata>
<defs>
<font id="STC" horiz-adv-x="0" >
  <font-face 
    font-family="STC"
    font-weight="400"
    font-stretch="normal"
    units-per-em="1000"
    panose-1="2 10 5 3 2 1 2 2 2 4"
    ascent="800"
    descent="-200"
    x-height="436"
    cap-height="666"
    bbox="-118 -491.615 1219 1063.62"
    underline-thickness="50"
    underline-position="-50"
    unicode-range="U+0020-FEFF"
  />
<missing-glyph horiz-adv-x="500" 
d="M63 0h375v750h-375v-750zM125 63v625h250v-625h-250z" />
    <glyph glyph-name="alefmaddaabovearabic" unicode="&#x627;&#x653;" horiz-adv-x="212" 
d="M157 28q0 -12 -7.5 -20t-20.5 -8h-51v581q0 12 8.5 20t19.5 8h51v-581zM141 695q-23 -20 -53 -25t-59 13q-13 7 -23 15t-18 16q-9 9 -17 18q18 16 20 18q6 6 14 5.5t20 -10.5q8 -6 18 -12.5t20.5 -9.5t21.5 -1t21 11q14 14 30 19.5t32 5.5q32 0 58 -18t46 -41l-22 -24
q-5 -5 -12.5 -4t-16.5 9q-23 20 -41.5 25.5t-38.5 -10.5z" />
    <glyph glyph-name="fehwithyehisolated" unicode="&#xfed3;&#xfef2;" horiz-adv-x="1053" arabic-form="isolated" 
d="M467 -164q17 0 37 5t36.5 16t27.5 27t11 39q0 26 -12.5 47.5t-33 39t-46.5 30.5t-53 22q1 4 17 50q3 11 10.5 19t24.5 1l40 -18q21 -9 45 -18t52 -15t61 -6h120q50 0 82 14.5t32 55.5q-17 -9 -46 -15.5t-61 -6.5q-50 0 -84 11.5t-55 33t-30 52.5t-9 70t10.5 69.5t33.5 52
t60 33t91 11.5q28 0 57 -6t55 -14.5t52 -18.5v-254q0 -32 -8.5 -61.5t-29.5 -52t-57 -36t-91 -13.5h-171q6 -9 10 -20.5t7.5 -27.5t3.5 -39q0 -17 -8.5 -43t-31.5 -50t-62.5 -41t-100.5 -17h-149q-48 0 -92.5 11.5t-78 39t-53.5 74t-20 116.5q0 23 3.5 48t8.5 49t12 45
l11 38l44 -11q11 -3 14 -9t0 -20l-12 -53q-8 -37 -8 -87q0 -55 18 -88t46 -50.5t62 -23t66 -5.5h142zM810 193q28 0 47.5 2.5t33.5 6.5t23 9v155q-25 8 -46 13t-51 5q-51 0 -80 -21.5t-29 -78.5q0 -27 8 -44.5t22 -28t32.5 -14.5t39.5 -4zM786 607q0 21 14.5 35.5t35.5 14.5
t35.5 -14.5t14.5 -35.5t-14.5 -35.5t-35.5 -14.5t-35.5 14.5t-14.5 35.5zM253 -348q0 21 14.5 35.5t35.5 14.5t35.5 -14.5t14.5 -35.5t-14.5 -35.5t-35.5 -14.5t-35.5 14.5t-14.5 35.5zM381 -348q0 21 14.5 35.5t35.5 14.5t35.5 -14.5t14.5 -35.5t-14.5 -35.5t-35.5 -14.5
t-35.5 14.5t-14.5 35.5z" />
    <glyph glyph-name="lamalefmaddaaboveisolatedarabi" unicode="&#xfedf;&#xfe82;" horiz-adv-x="656" arabic-form="isolated" 
d="M247 395q0 12 7.5 20t18.5 8h52v-348h83q57 0 83.5 24.5t26.5 70.5v410q0 12 7.5 20.5t18.5 8.5h52v-409q0 -46 -8.5 -83t-29.5 -63t-57.5 -40t-92.5 -14h-358v44q0 15 7 23t19 8h171v320zM271 536q-23 -20 -53 -25t-59 13q-13 7 -23 15t-18 16q-9 9 -17 18q18 16 20 18
q6 6 14 5.5t20 -10.5q8 -6 18 -12.5t20.5 -9.5t21.5 -1t21 11q14 14 30 19.5t32 5.5q32 0 58 -18t46 -41l-22 -24q-5 -5 -12.5 -4t-16.5 9q-23 20 -41.5 25.5t-38.5 -10.5z" />
    <glyph glyph-name="lamalefmaddaabovefinalarabic" unicode="&#xfee0;&#xfe82;" horiz-adv-x="696" arabic-form="final" 
d="M260 536q-23 -20 -53 -25t-59 13q-13 7 -23 15t-18 16q-9 9 -17 18q18 16 20 18q6 6 14 5.5t20 -10.5q8 -6 18 -12.5t20.5 -9.5t21.5 -1t21 11q14 14 30 19.5t32 5.5q32 0 58 -18t46 -41l-22 -24q-5 -5 -12.5 -4t-16.5 9q-23 20 -41.5 25.5t-38.5 -10.5zM39 44q0 11 5 21
t17 10h173v320q0 12 7.5 20t18.5 8h53v-348h117q42 0 58.5 20t16.5 53v432q0 12 7.5 20.5t18.5 8.5h53v-503q9 -9 24 -16q13 -6 32.5 -10.5t48.5 -4.5h19v-75h-19q-13 0 -29.5 3t-33 9t-32 15.5t-26.5 22.5q-12 -20 -41 -35t-74 -15h-414v44z" />
    <glyph glyph-name="lamalefhamzaaboveisolatedarabi" unicode="&#xfedf;&#xfe84;" horiz-adv-x="656" arabic-form="isolated" 
d="M247 395q0 12 7.5 20t18.5 8h52v-348h83q57 0 83.5 24.5t26.5 70.5v410q0 12 7.5 20.5t18.5 8.5h52v-409q0 -46 -8.5 -83t-29.5 -63t-57.5 -40t-92.5 -14h-358v44q0 15 7 23t19 8h171v320zM169 483v26q0 11 5.5 16.5t12.5 5.5h8q-5 6 -8 14.5t-3 24.5q0 21 8 37.5
t22 26.5t32 14t38 4q14 0 27 -1.5t23.5 -4t20.5 -4.5l-5 -29q-2 -8 -6.5 -12.5t-10.5 -3.5q-2 0 -16.5 2.5t-31.5 2.5q-32 0 -42.5 -11.5t-10.5 -21.5q0 -14 6 -20.5t13 -10.5t16.5 -5.5t17.5 -1.5h51q8 0 11 -5t3 -10v-33h-181z" />
    <glyph glyph-name="lamalefhamzaabovefinalarabicX" unicode="&#xfee0;&#xfe84;" horiz-adv-x="696" arabic-form="final" 
d="M39 44q0 11 5 21t17 10h173v320q0 12 7.5 20t18.5 8h53v-348h117q42 0 58.5 20t16.5 53v432q0 12 7.5 20.5t18.5 8.5h53v-503q9 -9 24 -16q13 -6 32.5 -10.5t48.5 -4.5h19v-75h-19q-13 0 -29.5 3t-33 9t-32 15.5t-26.5 22.5q-12 -20 -41 -35t-74 -15h-414v44zM159 483v26
q0 11 5.5 16.5t12.5 5.5h8q-5 6 -8 14.5t-3 24.5q0 21 8 37.5t22 26.5t32 14t38 4q14 0 27 -1.5t23.5 -4t20.5 -4.5l-5 -29q-2 -8 -6.5 -12.5t-10.5 -3.5q-2 0 -16.5 2.5t-31.5 2.5q-32 0 -42.5 -11.5t-10.5 -21.5q0 -14 6 -20.5t13 -10.5t16.5 -5.5t17.5 -1.5h51q8 0 11 -5
t3 -10v-33h-181z" />
    <glyph glyph-name="lamalefhamzabelowisolatedarabi" unicode="&#xfedf;&#xfe88;" horiz-adv-x="656" arabic-form="isolated" 
d="M159 -221v26q0 11 5.5 16.5t12.5 5.5h8q-5 6 -8 14.5t-3 24.5q0 21 8 37.5t22 26.5t32 14t38 4q14 0 27 -1.5t23.5 -4t20.5 -4.5l-5 -29q-2 -8 -6.5 -12.5t-10.5 -3.5q-2 0 -16.5 2.5t-31.5 2.5q-32 0 -42.5 -11.5t-10.5 -21.5q0 -14 6 -20.5t13 -10.5t16.5 -5.5
t17.5 -1.5h51q8 0 11 -5t3 -10v-33h-181zM247 395q0 12 7.5 20t18.5 8h52v-348h83q57 0 83.5 24.5t26.5 70.5v410q0 12 7.5 20.5t18.5 8.5h52v-409q0 -46 -8.5 -83t-29.5 -63t-57.5 -40t-92.5 -14h-358v44q0 15 7 23t19 8h171v320z" />
    <glyph glyph-name="lamalefhamzabelowfinalarabicX" unicode="&#xfee0;&#xfe88;" horiz-adv-x="696" arabic-form="final" 
d="M148 -221v26q0 11 5.5 16.5t12.5 5.5h8q-5 6 -8 14.5t-3 24.5q0 21 8 37.5t22 26.5t32 14t38 4q14 0 27 -1.5t23.5 -4t20.5 -4.5l-5 -29q-2 -8 -6.5 -12.5t-10.5 -3.5q-2 0 -16.5 2.5t-31.5 2.5q-32 0 -42.5 -11.5t-10.5 -21.5q0 -14 6 -20.5t13 -10.5t16.5 -5.5
t17.5 -1.5h51q8 0 11 -5t3 -10v-33h-181zM39 44q0 11 5 21t17 10h173v320q0 12 7.5 20t18.5 8h53v-348h117q42 0 58.5 20t16.5 53v432q0 12 7.5 20.5t18.5 8.5h53v-503q9 -9 24 -16q13 -6 32.5 -10.5t48.5 -4.5h19v-75h-19q-13 0 -29.5 3t-33 9t-32 15.5t-26.5 22.5
q-12 -20 -41 -35t-74 -15h-414v44z" />
    <glyph glyph-name="lamalefisolatedarabic" unicode="&#xfedf;&#xfe8e;" horiz-adv-x="656" arabic-form="isolated" 
d="M247 395q0 12 7.5 20t18.5 8h52v-348h83q57 0 83.5 24.5t26.5 70.5v410q0 12 7.5 20.5t18.5 8.5h52v-409q0 -46 -8.5 -83t-29.5 -63t-57.5 -40t-92.5 -14h-358v44q0 15 7 23t19 8h171v320z" />
    <glyph glyph-name="lamaleffinalarabic" unicode="&#xfee0;&#xfe8e;" horiz-adv-x="696" arabic-form="final" 
d="M39 44q0 11 5 21t17 10h173v320q0 12 7.5 20t18.5 8h53v-348h117q42 0 58.5 20t16.5 53v432q0 12 7.5 20.5t18.5 8.5h53v-503q9 -9 24 -16q13 -6 32.5 -10.5t48.5 -4.5h19v-75h-19q-13 0 -29.5 3t-33 9t-32 15.5t-26.5 22.5q-12 -20 -41 -35t-74 -15h-414v44z" />
    <glyph glyph-name="hamzaarabic" unicode="&#x621;" horiz-adv-x="434" arabic-form="isolated" 
d="M77 0v40q0 20 10.5 28t19.5 7h11q-8 10 -12.5 23.5t-4.5 37.5q0 33 13 59t34 40.5t50 21.5t59 7q23 0 43 -2.5t36.5 -6t31.5 -7.5q-1 -9 -2.5 -20t-4.5 -25q-2 -12 -9.5 -19.5t-18.5 -6.5q-3 0 -25 4.5t-48 4.5t-42 -5.5t-25.5 -13.5t-13 -17t-3.5 -17q0 -21 9.5 -31
t20.5 -16t25.5 -8.5t28.5 -2.5h79q12 0 17 -6t5 -18v-51h-284z" />
    <glyph glyph-name="alefhamzaabovearabic" unicode="&#x623;" horiz-adv-x="212" arabic-form="isolated" 
d="M157 28q0 -12 -7.5 -20t-20.5 -8h-51v581q0 12 8.5 20t19.5 8h51v-581zM11 663v26q0 11 5.5 16.5t12.5 5.5h8q-5 6 -8 14.5t-3 24.5q0 21 8 37.5t22 26.5t32 14t38 4q14 0 27 -1.5t23.5 -4t20.5 -4.5l-5 -29q-2 -8 -6.5 -12.5t-10.5 -3.5q-2 0 -16.5 2.5t-31.5 2.5
q-32 0 -42.5 -11.5t-10.5 -21.5q0 -14 6 -20.5t13 -10.5t16.5 -5.5t17.5 -1.5h51q8 0 11 -5t3 -10v-33h-181z" />
    <glyph glyph-name="wawhamzaabovearabic" unicode="&#x624;" horiz-adv-x="485" arabic-form="isolated" 
d="M166 452v26q0 11 5.5 16.5t12.5 5.5h8q-5 6 -8 14.5t-3 24.5q0 21 8 37.5t22 26.5t32 14t38 4q14 0 27 -1.5t23.5 -4t20.5 -4.5l-5 -29q-2 -8 -6.5 -12.5t-10.5 -3.5q-2 0 -16.5 2.5t-31.5 2.5q-32 0 -42.5 -11.5t-10.5 -21.5q0 -14 6 -20.5t13 -10.5t16.5 -5.5
t17.5 -1.5h51q8 0 11 -5t3 -10v-33h-181zM277 389q32 0 60.5 -4.5t52.5 -10t46 -12.5v-366q0 -65 -11 -108t-33.5 -68.5t-56.5 -36t-79 -10.5q-9 0 -23 1t-29 2.5t-29 4.5t-23 6q-11 4 -16.5 11.5t-1.5 22.5l10 42q18 -4 35.5 -7.5t37 -6t38.5 -2.5q36 0 57.5 12t32 31.5
t13.5 43.5t3 48v29q-10 -4 -22 -7t-28.5 -5t-36.5 -2q-34 0 -71.5 7t-69.5 27.5t-53 58t-21 98.5q0 55 18 93.5t48 62.5t69.5 34.5t82.5 10.5zM358 309q-14 5 -38 8t-47 3q-57 0 -94.5 -30.5t-37.5 -98.5q0 -35 11 -58.5t29.5 -37.5t43 -20t50.5 -6q23 0 39 2t26.5 5.5
t17.5 7.5v225z" />
    <glyph glyph-name="alefhamzabelowarabic" unicode="&#x625;" horiz-adv-x="212" arabic-form="isolated" 
d="M11 -213v26q0 11 5.5 16.5t12.5 5.5h8q-5 6 -8 14.5t-3 24.5q0 21 8 37.5t22 26.5t32 14t38 4q14 0 27 -1.5t23.5 -4t20.5 -4.5l-5 -29q-2 -8 -6.5 -12.5t-10.5 -3.5q-2 0 -16.5 2.5t-31.5 2.5q-32 0 -42.5 -11.5t-10.5 -21.5q0 -14 6 -20.5t13 -10.5t16.5 -5.5
t17.5 -1.5h51q8 0 11 -5t3 -10v-33h-181zM157 28q0 -12 -7.5 -20t-20.5 -8h-51v581q0 12 8.5 20t19.5 8h51v-581z" />
    <glyph glyph-name="yehhamzaabovearabic" unicode="&#x626;" horiz-adv-x="764" arabic-form="isolated" 
d="M64 292v26q0 11 5.5 16.5t12.5 5.5h8q-5 6 -8 14.5t-3 24.5q0 21 8 37.5t22 26.5t32 14t38 4q14 0 27 -1.5t23.5 -4t20.5 -4.5l-5 -29q-2 -8 -6.5 -12.5t-10.5 -3.5q-2 0 -16.5 2.5t-31.5 2.5q-32 0 -42.5 -11.5t-10.5 -21.5q0 -14 6 -20.5t13 -10.5t16.5 -5.5t17.5 -1.5
h51q8 0 11 -5t3 -10v-33h-181zM691 397q-1 -8 -2.5 -24t-2.5 -24q-2 -11 -4.5 -15.5t-13.5 -4.5q-6 0 -20 2l-33 5q-19 2 -40.5 4t-40.5 2q-72 0 -102.5 -16t-30.5 -65q0 -23 12 -37t30 -22.5t40 -13.5t81 -16t85.5 -22t42.5 -29t23 -44.5t7 -64.5q0 -90 -42.5 -136.5
t-146.5 -46.5h-228q-49 0 -93.5 11.5t-78 39.5t-53.5 74.5t-20 116.5q0 23 3.5 48t9 49t11.5 45t12 38l50 -12q10 -3 12.5 -9t-0.5 -19q-1 -5 -3.5 -14.5t-6.5 -29.5t-8 -45t-4 -51q0 -55 18.5 -88t45.5 -51t60 -23.5t65 -5.5h223q28 0 47 9t30.5 23.5t16.5 33t5 37.5
q0 27 -7.5 44t-21 26.5t-32 14.5t-46 10.5t-67 11.5t-74 21t-58 44.5t-23.5 82.5q0 38 11 67.5t35.5 49t64.5 29.5t98 10q32 0 61.5 -3t54 -7t48.5 -10z" />
    <glyph glyph-name="alefarabic" unicode="&#x627;" horiz-adv-x="212" arabic-form="isolated" 
d="M157 28q0 -12 -7.5 -20t-20.5 -8h-51v581q0 12 8.5 20t19.5 8h51v-581z" />
    <glyph glyph-name="beharabic" unicode="&#x628;" horiz-adv-x="786" arabic-form="isolated" 
d="M337 -107q0 21 14.5 35.5t35.5 14.5t35.5 -14.5t14.5 -35.5t-14.5 -35.5t-35.5 -14.5t-35.5 14.5t-14.5 35.5zM741 365v-183q0 -41 -8 -74.5t-29 -57.5t-57 -37t-92 -13h-311q-57 0 -96.5 15t-64 40t-35.5 58t-11 69q0 28 3 51.5t7 41.5t10 34q42 -12 47 -14
q10 -4 13.5 -11t0.5 -23q-3 -17 -6 -31.5t-3 -39.5q0 -34 14 -56.5t36.5 -35.5t52 -18t60.5 -5h288q60 0 81 26.5t21 77.5v158q0 11 8.5 19.5t19.5 8.5h51z" />
    <glyph glyph-name="tehmarbutaarabic" unicode="&#x629;" horiz-adv-x="470" arabic-form="isolated" 
d="M237 -7q-49 0 -85 15.5t-60 42.5t-36 63.5t-12 77.5q0 95 53.5 152t153.5 57q26 0 55.5 -4t57.5 -9t59 -12v-212q0 -25 -4 -55t-21.5 -55.5t-53 -43t-97.5 -17.5h-10zM345 319q-14 3 -35 4.5t-57 1.5t-60 -10.5t-39 -28.5t-21.5 -42.5t-6.5 -53.5q0 -33 9.5 -56
t25.5 -37.5t37.5 -20.5t45.5 -6h12q27 0 44.5 8t27 19.5t13.5 23.5t4 21v177zM156 517q0 21 14.5 35.5t35.5 14.5t35.5 -14.5t14.5 -35.5t-14.5 -35.5t-35.5 -14.5t-35.5 14.5t-14.5 35.5zM284 517q0 21 14.5 35.5t35.5 14.5t35.5 -14.5t14.5 -35.5t-14.5 -35.5t-35.5 -14.5
t-35.5 14.5t-14.5 35.5z" />
    <glyph glyph-name="teharabic" unicode="&#x62a;" horiz-adv-x="786" arabic-form="isolated" 
d="M273 443q0 21 14.5 35.5t35.5 14.5t35.5 -14.5t14.5 -35.5t-14.5 -35.5t-35.5 -14.5t-35.5 14.5t-14.5 35.5zM401 443q0 21 14.5 35.5t35.5 14.5t35.5 -14.5t14.5 -35.5t-14.5 -35.5t-35.5 -14.5t-35.5 14.5t-14.5 35.5zM741 365v-183q0 -41 -8 -74.5t-29 -57.5t-57 -37
t-92 -13h-311q-57 0 -96.5 15t-64 40t-35.5 58t-11 69q0 28 3 51.5t7 41.5t10 34q42 -12 47 -14q10 -4 13.5 -11t0.5 -23q-3 -17 -6 -31.5t-3 -39.5q0 -34 14 -56.5t36.5 -35.5t52 -18t60.5 -5h288q60 0 81 26.5t21 77.5v158q0 11 8.5 19.5t19.5 8.5h51z" />
    <glyph glyph-name="theharabic" unicode="&#x62b;" horiz-adv-x="786" arabic-form="isolated" 
d="M274 445q0 21 14.5 35.5t35.5 14.5t35.5 -14.5t14.5 -35.5t-14.5 -35.5t-35.5 -14.5t-35.5 14.5t-14.5 35.5zM401 445q0 21 14.5 35.5t35.5 14.5t35.5 -14.5t14.5 -35.5t-14.5 -35.5t-35.5 -14.5t-35.5 14.5t-14.5 35.5zM337 568q0 21 14.5 35.5t35.5 14.5t35.5 -14.5
t14.5 -35.5t-14.5 -35.5t-35.5 -14.5t-35.5 14.5t-14.5 35.5zM741 365v-183q0 -41 -8 -74.5t-29 -57.5t-57 -37t-92 -13h-311q-57 0 -96.5 15t-64 40t-35.5 58t-11 69q0 28 3 51.5t7 41.5t10 34q42 -12 47 -14q10 -4 13.5 -11t0.5 -23q-3 -17 -6 -31.5t-3 -39.5
q0 -34 14 -56.5t36.5 -35.5t52 -18t60.5 -5h288q60 0 81 26.5t21 77.5v158q0 11 8.5 19.5t19.5 8.5h51z" />
    <glyph glyph-name="jeemarabic" unicode="&#x62c;" horiz-adv-x="597" arabic-form="isolated" 
d="M335 317q-23 0 -46 -2t-43.5 -4.5t-37.5 -6t-29 -6.5q-25 -7 -29 12q-2 6 -12 51q27 7 57.5 12.5t67 10t77.5 4.5q58 0 99.5 -11.5t67 -37t37.5 -65.5t12 -96v-88q0 -46 -18.5 -68t-68.5 -22h-239q-23 0 -43 -3t-35 -12.5t-23.5 -27t-8.5 -45.5q0 -39 17 -68t40.5 -50
t48.5 -36l42 -25q10 -7 10 -15.5t-5 -16.5q-2 -4 -22 -37q-58 26 -90.5 52.5t-51 46t-32.5 43t-23 51t-9 59.5q0 55 19 86.5t46.5 47.5t57.5 20.5t52 4.5h259v83q0 37 -3 66.5t-17 50t-43 31.5t-81 11zM291 -124q0 21 14.5 35.5t35.5 14.5t35.5 -14.5t14.5 -35.5
t-14.5 -35.5t-35.5 -14.5t-35.5 14.5t-14.5 35.5z" />
    <glyph glyph-name="haharabic" unicode="&#x62d;" horiz-adv-x="597" arabic-form="isolated" 
d="M335 317q-23 0 -46 -2t-43.5 -4.5t-37.5 -6t-29 -6.5q-25 -7 -29 12q-2 6 -12 51q27 7 57.5 12.5t67 10t77.5 4.5q58 0 99.5 -11.5t67 -37t37.5 -65.5t12 -96v-88q0 -46 -18.5 -68t-68.5 -22h-239q-23 0 -43 -3t-35 -12.5t-23.5 -27t-8.5 -45.5q0 -39 17 -68t40.5 -50
t48.5 -36l42 -25q10 -7 10 -15.5t-5 -16.5q-2 -4 -22 -37q-58 26 -90.5 52.5t-51 46t-32.5 43t-23 51t-9 59.5q0 55 19 86.5t46.5 47.5t57.5 20.5t52 4.5h259v83q0 37 -3 66.5t-17 50t-43 31.5t-81 11z" />
    <glyph glyph-name="khaharabic" unicode="&#x62e;" horiz-adv-x="597" arabic-form="isolated" 
d="M335 317q-23 0 -46 -2t-43.5 -4.5t-37.5 -6t-29 -6.5q-25 -7 -29 12q-2 6 -12 51q27 7 57.5 12.5t67 10t77.5 4.5q58 0 99.5 -11.5t67 -37t37.5 -65.5t12 -96v-88q0 -46 -18.5 -68t-68.5 -22h-239q-23 0 -43 -3t-35 -12.5t-23.5 -27t-8.5 -45.5q0 -39 17 -68t40.5 -50
t48.5 -36l42 -25q10 -7 10 -15.5t-5 -16.5q-2 -4 -22 -37q-58 26 -90.5 52.5t-51 46t-32.5 43t-23 51t-9 59.5q0 55 19 86.5t46.5 47.5t57.5 20.5t52 4.5h259v83q0 37 -3 66.5t-17 50t-43 31.5t-81 11zM262 522q0 21 14.5 35.5t35.5 14.5t35.5 -14.5t14.5 -35.5t-14.5 -35.5
t-35.5 -14.5t-35.5 14.5t-14.5 35.5z" />
    <glyph glyph-name="dalarabic" unicode="&#x62f;" horiz-adv-x="502" arabic-form="isolated" 
d="M45 55q0 20 19 20h312v75q0 40 -8 66t-25.5 43t-46 28t-60.5 18l-57 13l-45 9q-37 7 -31 34l10 45q35 -6 63 -12l72 -16q44 -10 87 -31t68.5 -48.5t35.5 -60.5t10 -70v-66q0 -24 -3 -43t-13 -32t-29.5 -20t-53.5 -7h-305v55z" />
    <glyph glyph-name="thalarabic" unicode="&#x630;" horiz-adv-x="502" arabic-form="isolated" 
d="M45 55q0 20 19 20h312v75q0 40 -8 66t-25.5 43t-46 28t-60.5 18l-57 13l-45 9q-37 7 -31 34l10 45q35 -6 63 -12l72 -16q44 -10 87 -31t68.5 -48.5t35.5 -60.5t10 -70v-66q0 -24 -3 -43t-13 -32t-29.5 -20t-53.5 -7h-305v55zM132 515q0 21 14.5 35.5t35.5 14.5
t35.5 -14.5t14.5 -35.5t-14.5 -35.5t-35.5 -14.5t-35.5 14.5t-14.5 35.5z" />
    <glyph glyph-name="reharabic" unicode="&#x631;" horiz-adv-x="267" arabic-form="isolated" 
d="M149 336q0 12 8.5 20.5t19.5 8.5h50v-454q0 -47 -14 -77t-40 -45t-62.5 -15.5t-80.5 11.5q-14 5 -23.5 10.5t-5.5 20.5l11 47q25 -11 43.5 -15.5t29.5 -4.5q36 0 50 18t14 57v418z" />
    <glyph glyph-name="zainarabic" unicode="&#x632;" horiz-adv-x="267" arabic-form="isolated" 
d="M149 336q0 12 8.5 20.5t19.5 8.5h50v-454q0 -47 -14 -77t-40 -45t-62.5 -15.5t-80.5 11.5q-14 5 -23.5 10.5t-5.5 20.5l11 47q25 -11 43.5 -15.5t29.5 -4.5q36 0 50 18t14 57v418zM142 495q0 21 14.5 35.5t35.5 14.5t35.5 -14.5t14.5 -35.5t-14.5 -35.5t-35.5 -14.5
t-35.5 14.5t-14.5 35.5z" />
    <glyph glyph-name="seenarabic" unicode="&#x633;" horiz-adv-x="1140" arabic-form="isolated" 
d="M545 32v-35q0 -36 -10 -75.5t-36 -72.5t-71 -54.5t-116 -21.5q-47 0 -95.5 10.5t-88 39t-64.5 80t-25 134.5q0 23 3 51t8 56.5t11.5 55t13.5 47.5q46 -14 51 -16q11 -3 14.5 -10.5t-0.5 -23.5q-7 -24 -14.5 -69t-7.5 -91q0 -64 18.5 -100.5t48 -54.5t65 -22t69.5 -4
q45 0 73.5 12t44.5 32t22 47t6 57v265q0 11 8.5 19.5t19.5 8.5h50v-191q9 -9 23 -15.5t33.5 -11t48.5 -4.5q14 0 29.5 2t29 8.5t22.5 19t9 33.5v131q0 11 8.5 19.5t19.5 8.5h51v-182q22 -26 49 -33t51 -7q60 0 81 26.5t21 78.5v157q0 11 8.5 19.5t19.5 8.5h51v-183
q0 -41 -8 -74.5t-28 -57.5t-55.5 -37t-89.5 -13q-28 0 -50 7.5t-38 17.5t-25.5 19.5t-12.5 13.5q-3 -4 -10.5 -12.5t-22 -18t-37 -17.5t-53.5 -10h-21q-20 0 -49 7.5t-53 24.5z" />
    <glyph glyph-name="sheenarabic" unicode="&#x634;" horiz-adv-x="1140" arabic-form="isolated" 
d="M545 32v-35q0 -36 -10 -75.5t-36 -72.5t-71 -54.5t-116 -21.5q-47 0 -95.5 10.5t-88 39t-64.5 80t-25 134.5q0 23 3 51t8 56.5t11.5 55t13.5 47.5q46 -14 51 -16q11 -3 14.5 -10.5t-0.5 -23.5q-7 -24 -14.5 -69t-7.5 -91q0 -64 18.5 -100.5t48 -54.5t65 -22t69.5 -4
q45 0 73.5 12t44.5 32t22 47t6 57v265q0 11 8.5 19.5t19.5 8.5h50v-191q9 -9 23 -15.5t33.5 -11t48.5 -4.5q14 0 29.5 2t29 8.5t22.5 19t9 33.5v131q0 11 8.5 19.5t19.5 8.5h51v-182q22 -26 49 -33t51 -7q60 0 81 26.5t21 78.5v157q0 11 8.5 19.5t19.5 8.5h51v-183
q0 -41 -8 -74.5t-28 -57.5t-55.5 -37t-89.5 -13q-28 0 -50 7.5t-38 17.5t-25.5 19.5t-12.5 13.5q-3 -4 -10.5 -12.5t-22 -18t-37 -17.5t-53.5 -10h-21q-20 0 -49 7.5t-53 24.5zM678 463q0 21 14.5 35.5t35.5 14.5t35.5 -14.5t14.5 -35.5t-14.5 -35.5t-35.5 -14.5t-35.5 14.5
t-14.5 35.5zM805 463q0 21 14.5 35.5t35.5 14.5t35.5 -14.5t14.5 -35.5t-14.5 -35.5t-35.5 -14.5t-35.5 14.5t-14.5 35.5zM741 586q0 21 14.5 35.5t35.5 14.5t35.5 -14.5t14.5 -35.5t-14.5 -35.5t-35.5 -14.5t-35.5 14.5t-14.5 35.5z" />
    <glyph glyph-name="sadarabic" unicode="&#x635;" horiz-adv-x="1148" arabic-form="isolated" 
d="M484 361q0 11 8.5 19.5t19.5 8.5h50v-56l355 56q18 2 39.5 -1.5t45 -15t40 -25.5t29 -35t20.5 -49.5t8 -66.5t-8 -73.5t-28 -62.5t-53 -43.5t-84 -16.5h-364q0 -49 -9 -90t-34.5 -71.5t-70.5 -48t-117 -17.5q-47 0 -97.5 10.5t-92.5 39t-69 80t-27 134.5q0 23 3 51
t8 56.5t11.5 55t13.5 47.5l51 -16q11 -3 14.5 -10.5t-0.5 -23.5q-7 -24 -14 -69t-7 -91q0 -64 20.5 -100.5t52 -54.5t69.5 -22t72 -4q45 0 73.5 9.5t44.5 28t21.5 46t5.5 64.5v357zM911 75q13 0 32.5 4.5t37.5 17t31 35t13 58.5q0 42 -12.5 67t-30 38.5t-36.5 18t-32 4.5
l-352 -60v-183h349z" />
    <glyph glyph-name="dadarabic" unicode="&#x636;" horiz-adv-x="1148" arabic-form="isolated" 
d="M484 361q0 11 8.5 19.5t19.5 8.5h50v-56l355 56q18 2 39.5 -1.5t45 -15t40 -25.5t29 -35t20.5 -49.5t8 -66.5t-8 -73.5t-28 -62.5t-53 -43.5t-84 -16.5h-364q0 -49 -9 -90t-34.5 -71.5t-70.5 -48t-117 -17.5q-47 0 -97.5 10.5t-92.5 39t-69 80t-27 134.5q0 23 3 51
t8 56.5t11.5 55t13.5 47.5l51 -16q11 -3 14.5 -10.5t-0.5 -23.5q-7 -24 -14 -69t-7 -91q0 -64 20.5 -100.5t52 -54.5t69.5 -22t72 -4q45 0 73.5 9.5t44.5 28t21.5 46t5.5 64.5v357zM911 75q13 0 32.5 4.5t37.5 17t31 35t13 58.5q0 42 -12.5 67t-30 38.5t-36.5 18t-32 4.5
l-352 -60v-183h349zM598 494q0 21 14.5 35.5t35.5 14.5t35.5 -14.5t14.5 -35.5t-14.5 -35.5t-35.5 -14.5t-35.5 14.5t-14.5 35.5z" />
    <glyph glyph-name="taharabic" unicode="&#x637;" horiz-adv-x="772" arabic-form="isolated" 
d="M103 523q0 11 8.5 19.5t19.5 8.5h50v-219l358 57q17 3 41.5 -1t45.5 -15.5t37.5 -25.5t29 -35t20.5 -49.5t8 -66.5t-8 -73.5t-27.5 -62.5t-53 -43.5t-84.5 -16.5h-502v44q0 15 4.5 23t21.5 8h31v448zM533 75q13 0 32.5 4.5t37.5 17t31 34.5t13 58q0 42 -12.5 67.5t-30 39
t-36.5 18t-32 4.5l-355 -60v-183h352z" />
    <glyph glyph-name="zaharabic" unicode="&#x638;" horiz-adv-x="772" arabic-form="isolated" 
d="M275 494q0 21 14.5 35.5t35.5 14.5t35.5 -14.5t14.5 -35.5t-14.5 -35.5t-35.5 -14.5t-35.5 14.5t-14.5 35.5zM103 523q0 11 8.5 19.5t19.5 8.5h50v-219l358 57q17 3 41.5 -1t45.5 -15.5t37.5 -25.5t29 -35t20.5 -49.5t8 -66.5t-8 -73.5t-27.5 -62.5t-53 -43.5
t-84.5 -16.5h-502v44q0 15 4.5 23t21.5 8h31v448zM533 75q13 0 32.5 4.5t37.5 17t31 34.5t13 58q0 42 -12.5 67.5t-30 39t-36.5 18t-32 4.5l-355 -60v-183h352z" />
    <glyph glyph-name="ainarabic" unicode="&#x639;" horiz-adv-x="581" arabic-form="isolated" 
d="M496 75q11 0 19.5 -8.5t8.5 -19.5v-47h-327q-13 0 -29 -1t-29.5 -7.5t-22.5 -20.5t-9 -39q0 -36 16.5 -68.5t40 -59t48.5 -46.5t43 -30q9 -6 10 -15.5t-4 -17.5l-26 -40q-58 31 -90 60t-50.5 50.5t-32.5 46.5t-23 53t-9 60q0 46 15.5 75.5t39 46t50 22.5t48.5 6h23
q-11 10 -19 26.5t-13 40t-5 58.5q0 44 10.5 79t35 59.5t64 37.5t97.5 13q28 0 55.5 -3t52 -7t48.5 -10q-10 -35 -12 -41q-5 -14 -14 -20t-30 -2l-44 5q-27 3 -66 3q-36 0 -58 -9t-35 -24.5t-17.5 -37t-4.5 -45.5q0 -39 10 -63.5t23.5 -37.5t27.5 -17.5t23 -4.5h161z" />
    <glyph glyph-name="ghainarabic" unicode="&#x63a;" horiz-adv-x="581" arabic-form="isolated" 
d="M496 75q11 0 19.5 -8.5t8.5 -19.5v-47h-327q-13 0 -29 -1t-29.5 -7.5t-22.5 -20.5t-9 -39q0 -36 16.5 -68.5t40 -59t48.5 -46.5t43 -30q9 -6 10 -15.5t-4 -17.5l-26 -40q-58 31 -90 60t-50.5 50.5t-32.5 46.5t-23 53t-9 60q0 46 15.5 75.5t39 46t50 22.5t48.5 6h23
q-11 10 -19 26.5t-13 40t-5 58.5q0 44 10.5 79t35 59.5t64 37.5t97.5 13q28 0 55.5 -3t52 -7t48.5 -10q-10 -35 -12 -41q-5 -14 -14 -20t-30 -2l-44 5q-27 3 -66 3q-36 0 -58 -9t-35 -24.5t-17.5 -37t-4.5 -45.5q0 -39 10 -63.5t23.5 -37.5t27.5 -17.5t23 -4.5h161zM325 501
q0 21 14.5 35.5t35.5 14.5t35.5 -14.5t14.5 -35.5t-14.5 -35.5t-35.5 -14.5t-35.5 14.5t-14.5 35.5z" />
    <glyph glyph-name="feharabic" unicode="&#x641;" horiz-adv-x="938" arabic-form="isolated" 
d="M267 0q-59 0 -102 15.5t-71 42.5t-41 62.5t-13 76.5q0 37 4.5 65.5t9.5 45.5q3 10 10.5 12.5t15.5 0.5q4 -2 51 -17q-4 -17 -6.5 -33t-4.5 -33t-2 -34q0 -40 12.5 -65t33.5 -39.5t48 -19.5t55 -5h446q47 0 76 18.5t29 58.5l-17 -6q-8 -2 -18.5 -4.5t-24.5 -4t-35 -1.5
q-198 0 -198 176q0 45 10.5 80.5t34.5 60t62 37t94 12.5q28 0 58.5 -5.5t57.5 -13t55 -17.5v-292q0 -91 -50 -132.5t-147 -41.5h-433zM725 205q28 0 45.5 2.5t47.5 14.5v190q-23 8 -46 12t-46 4q-64 0 -92.5 -27t-28.5 -90q0 -30 9.5 -50.5t26 -33t38.5 -17.5t46 -5z
M702 631q0 21 14.5 35.5t35.5 14.5t35.5 -14.5t14.5 -35.5t-14.5 -35.5t-35.5 -14.5t-35.5 14.5t-14.5 35.5z" />
    <glyph glyph-name="qafarabic" unicode="&#x642;" horiz-adv-x="654" arabic-form="isolated" 
d="M603 -35q0 -45 -7 -87.5t-33 -75t-78 -52t-143 -19.5q-68 0 -123 12t-93.5 39.5t-59.5 71.5t-21 107q0 37 4.5 65.5t9.5 45.5q3 9 10 12.5t15 1.5l52 -17q-4 -16 -6.5 -32.5t-4.5 -34t-2 -34.5q0 -56 18.5 -88t49 -48.5t70 -21t81.5 -4.5q62 0 98.5 12t55 32.5t24 46
t5.5 52.5v63q-19 -5 -47 -9.5t-48 -4.5q-59 0 -97.5 14.5t-61.5 40t-32 61.5t-7 79q4 77 56 123.5t157 46.5q28 0 56 -6t52.5 -13.5t49.5 -17.5v-361zM422 67q28 0 48 2.5t33 6t22 8.5v189q-37 12 -75 15t-69 -6.5t-50.5 -35t-19.5 -71.5q0 -59 29 -83.5t82 -24.5zM344 492
q0 21 14.5 35.5t35.5 14.5t35.5 -14.5t14.5 -35.5t-14.5 -35.5t-35.5 -14.5t-35.5 14.5t-14.5 35.5zM472 492q0 21 14.5 35.5t35.5 14.5t35.5 -14.5t14.5 -35.5t-14.5 -35.5t-35.5 -14.5t-35.5 14.5t-14.5 35.5z" />
    <glyph glyph-name="kafarabic" unicode="&#x643;" horiz-adv-x="756" arabic-form="isolated" 
d="M698 201q0 -47 -8.5 -84t-29.5 -63t-57.5 -40t-92.5 -14h-235q-59 0 -102 15.5t-71 42.5t-41.5 63t-13.5 76q0 29 3 53t8 42.5t12 35.5l49 -16q11 -4 15.5 -11t0.5 -23q-4 -17 -6.5 -32.5t-2.5 -40.5q0 -40 13 -65.5t34 -39.5t47.5 -19.5t54.5 -5.5h235q57 0 83.5 24.5
t26.5 70.5v411q0 12 7.5 20t18.5 8h52v-408zM285 303v26q0 11 5.5 16.5t12.5 5.5h8q-5 6 -8 14.5t-3 24.5q0 21 8 37.5t22 26.5t32 14t38 4q14 0 27 -1.5t23.5 -4t20.5 -4.5l-5 -29q-2 -8 -6.5 -12.5t-10.5 -3.5q-2 0 -16.5 2.5t-31.5 2.5q-32 0 -42.5 -11.5t-10.5 -21.5
q0 -14 6 -20.5t13 -10.5t16.5 -5.5t17.5 -1.5h51q8 0 11 -5t3 -10v-33h-181z" />
    <glyph glyph-name="lamarabic" unicode="&#x644;" horiz-adv-x="654" arabic-form="isolated" 
d="M602 -3q0 -36 -9 -75.5t-36.5 -72.5t-78 -54.5t-132.5 -21.5q-48 0 -100.5 10t-96.5 39t-72.5 80t-28.5 134q0 23 3 51t7.5 56.5t11 55.5t14.5 47l50 -16q11 -4 15 -12.5t0 -20.5q-8 -24 -15 -69t-7 -92q0 -64 22.5 -100t56.5 -54t73.5 -22.5t72.5 -4.5q55 0 89 12
t52.5 32t24.5 47.5t6 57.5v577q0 12 7 20t18 8h53v-612z" />
    <glyph glyph-name="meemarabic" unicode="&#x645;" horiz-adv-x="593" arabic-form="isolated" 
d="M448 313q-14 5 -32 10t-46 5q-75 0 -108.5 -34t-33.5 -103q0 -35 12 -61t33.5 -44t50.5 -27t63 -9q26 0 43.5 12.5t17.5 44.5v206zM182 81q-10 11 -17.5 26.5t-12.5 38t-5 52.5q0 44 15.5 81t44 63.5t69.5 41.5t93 15q26 0 53.5 -4.5t52.5 -10t52 -12.5v-259
q0 -26 -5 -50.5t-19 -43.5t-39.5 -30.5t-66.5 -11.5q-21 0 -45 3t-46 8t-40.5 11.5t-30.5 14.5q-18 -2 -37.5 -9t-36 -20t-27.5 -31.5t-11 -43.5q0 -19 2 -41t5 -42.5t6.5 -38.5t6.5 -30q2 -8 -0.5 -15.5t-14.5 -10.5q-9 -2 -57 -11q-11 43 -15.5 70t-8.5 59t-4 62
q0 47 16.5 78.5t39 51t46 28.5t37.5 11z" />
    <glyph glyph-name="noonarabic" unicode="&#x646;" horiz-adv-x="658" arabic-form="isolated" 
d="M610 0q0 -36 -9.5 -75.5t-37.5 -72t-79 -54t-133 -21.5q-47 0 -100 10t-97.5 39t-74 80t-29.5 134q0 23 3 51t8 56.5t11.5 55.5t13.5 47q39 -11 51 -16q12 -4 15 -11t-1 -22q-3 -12 -7 -30t-7.5 -39.5t-5.5 -45t-2 -46.5q0 -64 23 -100t57.5 -54t74.5 -22.5t74 -4.5
q55 0 89.5 12t53 32t25 47.5t6.5 57.5v330q0 12 7 20t18 8h53v-366zM281 368q0 21 14.5 35.5t35.5 14.5t35.5 -14.5t14.5 -35.5t-14.5 -35.5t-35.5 -14.5t-35.5 14.5t-14.5 35.5z" />
    <glyph glyph-name="heharabic" unicode="&#x647;" horiz-adv-x="470" arabic-form="isolated" 
d="M237 -7q-49 0 -85 15.5t-60 42.5t-36 63.5t-12 77.5q0 95 53.5 152t153.5 57q26 0 55.5 -4t57.5 -9t59 -12v-212q0 -25 -4 -55t-21.5 -55.5t-53 -43t-97.5 -17.5h-10zM345 319q-14 3 -35 4.5t-57 1.5t-60 -10.5t-39 -28.5t-21.5 -42.5t-6.5 -53.5q0 -33 9.5 -56
t25.5 -37.5t37.5 -20.5t45.5 -6h12q27 0 44.5 8t27 19.5t13.5 23.5t4 21v177z" />
    <glyph glyph-name="wawarabic" unicode="&#x648;" horiz-adv-x="485" arabic-form="isolated" 
d="M277 389q32 0 60.5 -4.5t52.5 -10t46 -12.5v-366q0 -65 -11 -108t-33.5 -68.5t-56.5 -36t-79 -10.5q-9 0 -23 1t-29 2.5t-29 4.5t-23 6q-11 4 -16.5 11.5t-1.5 22.5l10 42q18 -4 35.5 -7.5t37 -6t38.5 -2.5q36 0 57.5 12t32 31.5t13.5 43.5t3 48v29q-10 -4 -22 -7
t-28.5 -5t-36.5 -2q-34 0 -71.5 7t-69.5 27.5t-53 58t-21 98.5q0 55 18 93.5t48 62.5t69.5 34.5t82.5 10.5zM358 309q-14 5 -38 8t-47 3q-57 0 -94.5 -30.5t-37.5 -98.5q0 -35 11 -58.5t29.5 -37.5t43 -20t50.5 -6q23 0 39 2t26.5 5.5t17.5 7.5v225z" />
    <glyph glyph-name="alefmaksuraarabic" unicode="&#x649;" horiz-adv-x="764" arabic-form="isolated" 
d="M691 397q-1 -8 -2.5 -24t-2.5 -24q-2 -11 -4.5 -15.5t-13.5 -4.5q-6 0 -20 2l-33 5q-19 2 -40.5 4t-40.5 2q-72 0 -102.5 -16t-30.5 -65q0 -23 12 -37t30 -22.5t40 -13.5t81 -16t85.5 -22t42.5 -29t23 -44.5t7 -64.5q0 -90 -42.5 -136.5t-146.5 -46.5h-228
q-49 0 -93.5 11.5t-78 39.5t-53.5 74.5t-20 116.5q0 23 3.5 48t9 49t11.5 45t12 38l50 -12q10 -3 12.5 -9t-0.5 -19q-1 -5 -3.5 -14.5t-6.5 -29.5t-8 -45t-4 -51q0 -55 18.5 -88t45.5 -51t60 -23.5t65 -5.5h223q28 0 47 9t30.5 23.5t16.5 33t5 37.5q0 27 -7.5 44t-21 26.5
t-32 14.5t-46 10.5t-67 11.5t-74 21t-58 44.5t-23.5 82.5q0 38 11 67.5t35.5 49t64.5 29.5t98 10q32 0 61.5 -3t54 -7t48.5 -10z" />
    <glyph glyph-name="yeharabic" unicode="&#x64a;" horiz-adv-x="764" arabic-form="isolated" 
d="M691 397q-1 -8 -2.5 -24t-2.5 -24q-2 -11 -4.5 -15.5t-13.5 -4.5q-6 0 -20 2l-33 5q-19 2 -40.5 4t-40.5 2q-72 0 -102.5 -16t-30.5 -65q0 -23 12 -37t30 -22.5t40 -13.5t81 -16t85.5 -22t42.5 -29t23 -44.5t7 -64.5q0 -90 -42.5 -136.5t-146.5 -46.5h-228
q-49 0 -93.5 11.5t-78 39.5t-53.5 74.5t-20 116.5q0 23 3.5 48t9 49t11.5 45t12 38l50 -12q10 -3 12.5 -9t-0.5 -19q-1 -5 -3.5 -14.5t-6.5 -29.5t-8 -45t-4 -51q0 -55 18.5 -88t45.5 -51t60 -23.5t65 -5.5h223q28 0 47 9t30.5 23.5t16.5 33t5 37.5q0 27 -7.5 44t-21 26.5
t-32 14.5t-46 10.5t-67 11.5t-74 21t-58 44.5t-23.5 82.5q0 38 11 67.5t35.5 49t64.5 29.5t98 10q32 0 61.5 -3t54 -7t48.5 -10zM282 -277q0 21 14.5 35.5t35.5 14.5t35.5 -14.5t14.5 -35.5t-14.5 -35.5t-35.5 -14.5t-35.5 14.5t-14.5 35.5zM410 -277q0 21 14.5 35.5
t35.5 14.5t35.5 -14.5t14.5 -35.5t-14.5 -35.5t-35.5 -14.5t-35.5 14.5t-14.5 35.5z" />
    <glyph glyph-name="fathatanarabic" unicode="&#xfe70;" arabic-form="isolated" 
d="M33 660q-9 -2 -14.5 2.5t-5.5 10.5v25l253 46q6 1 10 -3.5t4 -9.5v-26zM33 584q-9 -2 -14.5 2.5t-5.5 10.5v25l253 46q6 1 10 -3.5t4 -9.5v-26z" />
    <glyph glyph-name="dammatanarabic" unicode="&#xfe72;" arabic-form="isolated" 
d="M189 1023q7 -10 11 -19.5t7 -18t5 -16.5l-111 -70q-20 -13 -35 -18t-27.5 -3t-22 10.5t-18.5 21.5q-2 3 -4 7.5t-4.5 9.5t-4.5 9.5t-3 8.5t0.5 7t6.5 5l15 5q2 -6 4.5 -12t5.5 -12.5t7 -12.5q6 -11 14 -15t16 -3.5t16 4t15 8.5l9 5q-3 3 -6.5 6t-7 7.5t-7.5 10.5
q-7 10 -12 23t-5 26.5t7.5 27.5t25.5 25q17 11 32 13t28 -2.5t24 -14.5t19 -23zM181 983q-1 5 -5 13t-8 15q-11 17 -27.5 22.5t-37.5 -7.5q-11 -7 -16 -15t-5.5 -16t2.5 -16.5t8 -16.5q4 -7 8 -11.5t7 -7t5 -4.5zM229 958q6 -10 10.5 -19.5t7.5 -17.5t5 -17l-111 -70
q-20 -13 -35.5 -18t-27.5 -3t-21.5 10.5t-18.5 21.5q-2 3 -4 7.5t-4.5 9.5t-4.5 9.5t-3 8.5t0.5 7t6.5 5l15 5q2 -6 4.5 -12t5.5 -12.5t6 -12.5q7 -11 15 -15t16 -3.5t16 4t15 8.5l9 5q-3 3 -6.5 6t-7.5 7.5t-7 10.5q-7 11 -12 23.5t-5 26t7.5 27.5t25.5 25q17 11 32 13
t28 -2.5t24 -14.5t19 -23zM221 918q-2 5 -5.5 13t-7.5 15q-11 17 -27.5 22.5t-37.5 -7.5q-11 -7 -16 -14.5t-8 -16t2.5 -17t10.5 -16.5q4 -7 8 -11.5t7 -7t5 -4.5z" />
    <glyph glyph-name="kasratanarabic" unicode="&#xfe74;" arabic-form="isolated" 
d="M33 -415q-9 -2 -14.5 2.5t-5.5 10.5v25l253 46q6 1 10 -3.5t4 -9.5v-26zM33 -491q-9 -2 -14.5 2.5t-5.5 10.5v25l253 46q6 1 10 -3.5t4 -9.5v-26z" />
    <glyph glyph-name="fathaarabic" unicode="&#xfe76;" arabic-form="isolated" 
d="M33 584q-9 -2 -14.5 2.5t-5.5 10.5v25l253 46q6 1 10 -3.5t4 -9.5v-26z" />
    <glyph glyph-name="dammaarabic" unicode="&#xfe78;" arabic-form="isolated" 
d="M229 958q6 -10 10.5 -19.5t7.5 -17.5t5 -17l-111 -70q-20 -13 -35.5 -18t-27.5 -3t-21.5 10.5t-18.5 21.5q-2 3 -4 7.5t-4.5 9.5t-4.5 9.5t-3 8.5t0.5 7t6.5 5l15 5q2 -6 4.5 -12t5.5 -12.5t6 -12.5q7 -11 15 -15t16 -3.5t16 4t15 8.5l9 5q-3 3 -6.5 6t-7.5 7.5t-7 10.5
q-7 11 -12 23.5t-5 26t7.5 27.5t25.5 25q17 11 32 13t28 -2.5t24 -14.5t19 -23zM221 918q-2 5 -5.5 13t-7.5 15q-11 17 -27.5 22.5t-37.5 -7.5q-11 -7 -16 -14.5t-5.5 -16t2.5 -17t8 -16.5q4 -7 8 -11.5t7 -7t5 -4.5z" />
    <glyph glyph-name="kasraarabic" unicode="&#xfe7a;" arabic-form="isolated" 
d="M33 -415q-9 -2 -14.5 2.5t-5.5 10.5v25l253 46q6 1 10 -3.5t4 -9.5v-26z" />
    <glyph glyph-name="shaddaarabic" unicode="&#xfe7c;" arabic-form="isolated" 
d="M110 652q20 0 24.5 10t4.5 26v51q0 13 12 13h26v-84q4 -4 9 -7.5t11.5 -6t15.5 -2.5q14 1 22.5 5.5t8.5 25.5v56q0 13 12 13h26v-80q0 -28 -18.5 -42t-41.5 -14q-12 0 -26.5 5t-26.5 19q-6 -10 -20 -17t-36 -7h-7q-36 0 -54 16t-18 40v80h26q12 0 12 -13v-56
q0 -21 11.5 -26t26.5 -5z" />
    <glyph glyph-name="sukunarabic" unicode="&#xfe7e;" arabic-form="isolated" 
d="M160.5 660q-34.5 0 -58.5 22t-24 57q0 33 24 56.5t58.5 23.5t57.5 -23.5t23 -56.5q0 -35 -23 -57t-57.5 -22zM160 697q18 0 30 12t12 30q0 17 -12 29.5t-30 12.5q-17 0 -30 -12.5t-13 -29.5q0 -18 12.5 -30t30.5 -12z" />
    <glyph glyph-name="uniFDF2" unicode="&#xfdf2;" horiz-adv-x="1000" arabic-form="isolated" 
d="M344 319q-26 7 -52.5 9t-43.5 2q-25 0 -46.5 -5t-37.5 -19.5t-25 -39t-9 -63.5q0 -73 29 -105t82 -32q28 0 47 6t32.5 14.5t23.5 19.5v213zM622 511q15 0 18.5 7.5t3.5 19.5v37q0 10 9 10h19v-62q3 -3 7 -5.5t8.5 -4.5t11.5 -2q10 1 16.5 4t6.5 19v41q0 10 9 10h19v-59
q0 -21 -13.5 -31.5t-30.5 -10.5q-9 0 -20 4t-20 14q-4 -7 -14.5 -12.5t-27.5 -5.5h-5q-27 0 -40.5 12t-13.5 30v59h20q9 0 9 -10v-41q0 -16 8.5 -19.5t19.5 -3.5zM638 686l2 4q2 5 5 5l13 -1l10 -85q0 -3 -2.5 -5t-4.5 -1l-13 1zM1005 201q0 -47 -8.5 -84t-29.5 -63t-57 -40
q-39 -15 -91 -14h-2h-17q-26 0 -62 12t-59 39q-12 -20 -41 -35.5t-74 -15.5h-66h-10h-41q-16 0 -29 5.5t-23.5 13t-17.5 15.5t-10 14q-6 -6 -16.5 -15.5t-27 -18t-39 -15t-51.5 -6.5q-31 0 -63 8t-58.5 31t-43.5 64.5t-17 108.5q0 41 10 76.5t32.5 62t58 41.5t87.5 15
q35 0 68 -4t61 -9t54 -12v-261q0 -20 12.5 -29.5t29.5 -9.5h24h10h43q41 0 59 20q17 19 17 53v262q0 14 7 19q10 9 18 9h53v-331q9 -9 23 -15.5t33.5 -11.5t48.5 -5h7v0h10h1h1v0q54 -1 82 25q26 24 26 70v411q0 12 7.5 20t18.5 8h52v-408z" />
    <glyph glyph-name="alefmaddaabovefinalarabic" unicode="&#x622;" horiz-adv-x="261" arabic-form="final" 
d="M67 609h50q11 0 19.5 -8t8.5 -20v-412q0 -46 26.5 -70t83.5 -24h22v-75h-22q-56 0 -92.5 14t-57.5 40t-29.5 63t-8.5 83v409zM130 695q-23 -20 -53 -25t-59 13q-13 7 -23 15t-18 16q-9 9 -17 18q18 16 20 18q6 6 14 5.5t20 -10.5q8 -6 18 -12.5t20.5 -9.5t21.5 -1t21 11
q14 14 30 19.5t32 5.5q32 0 58 -18t46 -41l-22 -24q-5 -5 -12.5 -4t-16.5 9q-23 20 -41.5 25.5t-38.5 -10.5z" />
    <glyph glyph-name="alefhamzaabovefinalarabic" unicode="&#x623;" horiz-adv-x="261" arabic-form="final" 
d="M67 609h50q11 0 19.5 -8t8.5 -20v-412q0 -46 26.5 -70t83.5 -24h22v-75h-22q-56 0 -92.5 14t-57.5 40t-29.5 63t-8.5 83v409zM-1 663v26q0 11 5.5 16.5t12.5 5.5h8q-5 6 -8 14.5t-3 24.5q0 21 8 37.5t22 26.5t32 14t38 4q14 0 27 -1.5t23.5 -4t20.5 -4.5l-5 -29
q-2 -8 -6.5 -12.5t-10.5 -3.5q-2 0 -16.5 2.5t-31.5 2.5q-32 0 -42.5 -11.5t-10.5 -21.5q0 -14 6 -20.5t13 -10.5t16.5 -5.5t17.5 -1.5h51q8 0 11 -5t3 -10v-33h-181z" />
    <glyph glyph-name="wawhamzaabovefinalarabic" unicode="&#x624;" horiz-adv-x="506" arabic-form="final" 
d="M134 452v26q0 11 5.5 16.5t12.5 5.5h8q-5 6 -8 14.5t-3 24.5q0 21 8 37.5t22 26.5t32 14t38 4q14 0 27 -1.5t23.5 -4t20.5 -4.5l-5 -29q-2 -8 -6.5 -12.5t-10.5 -3.5q-2 0 -16.5 2.5t-31.5 2.5q-32 0 -42.5 -11.5t-10.5 -21.5q0 -14 6 -20.5t13 -10.5t16.5 -5.5
t17.5 -1.5h51q8 0 11 -5t3 -10v-33h-181zM518 0h-82v-9q0 -65 -12 -107t-36 -67t-59 -34.5t-80 -9.5q-18 0 -42.5 3.5t-44.5 8.5q-12 3 -22.5 9.5t-6.5 20.5l11 48q15 -4 31.5 -7.5t35 -6t37.5 -2.5q45 0 68.5 14.5t33 36.5t10.5 49t1 53h-113q-28 0 -60 7t-60.5 26.5
t-48.5 56t-20 97.5q0 49 15.5 87.5t44.5 64t69.5 38t88.5 12.5q32 0 60.5 -4.5t52.5 -10t46 -12.5v-287h82v-75zM358 309q-43 11 -75 11q-26 1 -51.5 -5t-46.5 -20.5t-33 -40t-12 -62.5q0 -61 32 -89t82 -28h104v234z" />
    <glyph glyph-name="alefhamzabelowfinalarabic" unicode="&#x625;" horiz-adv-x="261" arabic-form="final" 
d="M62 -213v26q0 11 5.5 16.5t12.5 5.5h8q-5 6 -8 14.5t-3 24.5q0 21 8 37.5t22 26.5t32 14t38 4q14 0 27 -1.5t23.5 -4t20.5 -4.5l-5 -29q-2 -8 -6.5 -12.5t-10.5 -3.5q-2 0 -16.5 2.5t-31.5 2.5q-32 0 -42.5 -11.5t-10.5 -21.5q0 -14 6 -20.5t13 -10.5t16.5 -5.5
t17.5 -1.5h51q8 0 11 -5t3 -10v-33h-181zM67 609h50q11 0 19.5 -8t8.5 -20v-412q0 -46 26.5 -70t83.5 -24h22v-75h-22q-56 0 -92.5 14t-57.5 40t-29.5 63t-8.5 83v409z" />
    <glyph glyph-name="yehhamzaabovefinalarabic" unicode="&#x626;" horiz-adv-x="716" arabic-form="final" 
d="M63 224v26q0 11 5.5 16.5t12.5 5.5h8q-5 6 -8 14.5t-3 24.5q0 21 8 37.5t22 26.5t32 14t38 4q14 0 27 -1.5t23.5 -4t20.5 -4.5l-5 -29q-2 -8 -6.5 -12.5t-10.5 -3.5q-2 0 -16.5 2.5t-31.5 2.5q-32 0 -42.5 -11.5t-10.5 -21.5q0 -14 6 -20.5t13 -10.5t16.5 -5.5t17.5 -1.5
h51q8 0 11 -5t3 -10v-33h-181zM467 -164q17 0 37 5t36.5 16t27.5 27t11 39q0 26 -12.5 47.5t-33 39t-46.5 30.5t-53 22q1 4 17 50q3 11 10.5 19t24.5 1l40 -18q21 -9 45 -18t52 -15t61 -6h54v-75h-103q6 -9 10 -20.5t7.5 -27.5t3.5 -39q0 -17 -8.5 -43t-31.5 -50t-62.5 -41
t-100.5 -17h-149q-48 0 -92.5 11.5t-78 39t-53.5 74t-20 116.5q0 23 3.5 48t8.5 49t12 45l11 38l44 -11q10 -3 13.5 -9.5t0.5 -19.5l-12 -53q-8 -37 -8 -87q0 -55 18 -88t46 -50.5t62 -23t66 -5.5h142z" />
    <glyph glyph-name="yehhamzaaboveinitialarabic" unicode="&#x626;" horiz-adv-x="293" arabic-form="initial" 
d="M101 443v26q0 11 5.5 16.5t12.5 5.5h8q-5 6 -8 14.5t-3 24.5q0 21 8 37.5t22 26.5t32 14t38 4q14 0 27 -1.5t23.5 -4t20.5 -4.5l-5 -29q-2 -8 -6.5 -12.5t-10.5 -3.5q-2 0 -16.5 2.5t-31.5 2.5q-32 0 -42.5 -11.5t-10.5 -21.5q0 -14 6 -20.5t13 -10.5t16.5 -5.5
t17.5 -1.5h51q8 0 11 -5t3 -10v-33h-181zM155 337q0 12 8.5 20t19.5 8h50v-209q0 -80 -46 -118t-138 -38h-69v75h66q51 0 80 24t29 71v167z" />
    <glyph glyph-name="yehhamzaabovemedialarabic" unicode="&#x626;" horiz-adv-x="297" arabic-form="medial" 
d="M50 442v26q0 11 5.5 16.5t12.5 5.5h8q-5 6 -8 14.5t-3 24.5q0 21 8 37.5t22 26.5t32 14t38 4q14 0 27 -1.5t23.5 -4t20.5 -4.5l-5 -29q-2 -8 -6.5 -12.5t-10.5 -3.5q-2 0 -16.5 2.5t-31.5 2.5q-32 0 -42.5 -11.5t-10.5 -21.5q0 -14 6 -20.5t13 -10.5t16.5 -5.5t17.5 -1.5
h51q8 0 11 -5t3 -10v-33h-181zM104 337q0 12 8 20t20 8h50v-259q9 -9 23 -15.5t34 -11t49 -4.5h19v-75h-19q-12 0 -28.5 2.5t-33 8.5t-32.5 15t-27 23q-12 -20 -41.5 -34.5t-72.5 -14.5h-73v75h48q42 0 59 20.5t17 52.5v189z" />
    <glyph glyph-name="aleffinalarabic" unicode="&#x627;" horiz-adv-x="261" arabic-form="final" 
d="M67 609h50q11 0 19.5 -8t8.5 -20v-412q0 -46 26.5 -70t83.5 -24h22v-75h-22q-56 0 -92.5 14t-57.5 40t-29.5 63t-8.5 83v409z" />
    <glyph glyph-name="behfinalarabic" unicode="&#x628;" horiz-adv-x="854" arabic-form="final" 
d="M336 -107q0 21 14.5 35.5t35.5 14.5t35.5 -14.5t14.5 -35.5t-14.5 -35.5t-35.5 -14.5t-35.5 14.5t-14.5 35.5zM662 337q0 11 8.5 19.5t19.5 8.5h50v-258q9 -9 23 -15.5t33.5 -11.5t48.5 -5h20v-75h-20q-12 0 -28.5 2.5t-33 8.5t-32 15.5t-27.5 23.5q-12 -20 -41 -35
t-72 -15h-368q-57 0 -97 15t-64.5 40t-35.5 58t-11 69q0 28 3 51.5t7 41.5t11 34q41 -12 46 -14q11 -4 14.5 -11t0.5 -23q-4 -17 -7 -31.5t-3 -39.5q0 -34 14 -56.5t37 -35.5t52.5 -18t60.5 -5h315q42 0 59 19.5t17 52.5v190z" />
    <glyph glyph-name="behinitialarabic" unicode="&#x628;" horiz-adv-x="293" arabic-form="initial" 
d="M94 -107q0 21 14.5 35.5t35.5 14.5t35.5 -14.5t14.5 -35.5t-14.5 -35.5t-35.5 -14.5t-35.5 14.5t-14.5 35.5zM155 337q0 12 8.5 20t19.5 8h50v-209q0 -80 -46 -118t-138 -38h-69v75h66q51 0 80 24t29 71v167z" />
    <glyph glyph-name="behmedialarabic" unicode="&#x628;" horiz-adv-x="297" arabic-form="medial" 
d="M83 -107q0 21 14.5 35.5t35.5 14.5t35.5 -14.5t14.5 -35.5t-14.5 -35.5t-35.5 -14.5t-35.5 14.5t-14.5 35.5zM104 337q0 12 8 20t20 8h50v-259q9 -9 23 -15.5t34 -11t49 -4.5h19v-75h-19q-12 0 -28.5 2.5t-33 8.5t-32.5 15t-27 23q-12 -20 -41.5 -34.5t-72.5 -14.5h-73
v75h48q42 0 59 20.5t17 52.5v189z" />
    <glyph glyph-name="tehmarbutafinalarabic" unicode="&#x629;" horiz-adv-x="486" arabic-form="final" 
d="M498 75v-75h-51q-16 0 -29 5.5t-23.5 13t-17.5 15.5t-10 14q-6 -6 -16.5 -15.5t-27 -18t-39 -15t-51.5 -6.5q-31 0 -63 8t-58.5 31t-43.5 64.5t-17 108.5q0 41 10 76.5t32.5 62t58 41.5t87.5 15q35 0 68 -4t61 -9t54 -12v-261q0 -20 12.5 -29.5t29.5 -9.5h34zM344 319
q-26 7 -52.5 9t-43.5 2q-25 0 -46.5 -5t-37.5 -19.5t-25 -39t-9 -63.5q0 -73 29 -105t82 -32q28 0 47 6t32.5 14.5t23.5 19.5v213zM156 531q0 21 14.5 35.5t35.5 14.5t35.5 -14.5t14.5 -35.5t-14.5 -35.5t-35.5 -14.5t-35.5 14.5t-14.5 35.5zM284 531q0 21 14.5 35.5
t35.5 14.5t35.5 -14.5t14.5 -35.5t-14.5 -35.5t-35.5 -14.5t-35.5 14.5t-14.5 35.5z" />
    <glyph glyph-name="tehfinalarabic" unicode="&#x62a;" horiz-adv-x="854" arabic-form="final" 
d="M273 444q0 21 14.5 35.5t35.5 14.5t35.5 -14.5t14.5 -35.5t-14.5 -35.5t-35.5 -14.5t-35.5 14.5t-14.5 35.5zM401 444q0 21 14.5 35.5t35.5 14.5t35.5 -14.5t14.5 -35.5t-14.5 -35.5t-35.5 -14.5t-35.5 14.5t-14.5 35.5zM662 337q0 11 8.5 19.5t19.5 8.5h50v-258
q9 -9 23 -15.5t33.5 -11.5t48.5 -5h20v-75h-20q-12 0 -28.5 2.5t-33 8.5t-32 15.5t-27.5 23.5q-12 -20 -41 -35t-72 -15h-368q-57 0 -97 15t-64.5 40t-35.5 58t-11 69q0 28 3 51.5t7 41.5t11 34q41 -12 46 -14q11 -4 14.5 -11t0.5 -23q-4 -17 -7 -31.5t-3 -39.5
q0 -34 14 -56.5t37 -35.5t52.5 -18t60.5 -5h315q42 0 59 19.5t17 52.5v190z" />
    <glyph glyph-name="tehinitialarabic" unicode="&#x62a;" horiz-adv-x="298" arabic-form="initial" 
d="M70 496q0 21 14.5 35.5t35.5 14.5t35.5 -14.5t14.5 -35.5t-14.5 -35.5t-35.5 -14.5t-35.5 14.5t-14.5 35.5zM198 496q0 21 14.5 35.5t35.5 14.5t35.5 -14.5t14.5 -35.5t-14.5 -35.5t-35.5 -14.5t-35.5 14.5t-14.5 35.5zM155 337q0 12 8.5 20t19.5 8h50v-209
q0 -80 -46 -118t-138 -38h-69v75h66q51 0 80 24t29 71v167z" />
    <glyph glyph-name="tehmedialarabic" unicode="&#x62a;" horiz-adv-x="297" arabic-form="medial" 
d="M31 495q0 21 14.5 35.5t35.5 14.5t35.5 -14.5t14.5 -35.5t-14.5 -35.5t-35.5 -14.5t-35.5 14.5t-14.5 35.5zM159 495q0 21 14.5 35.5t35.5 14.5t35.5 -14.5t14.5 -35.5t-14.5 -35.5t-35.5 -14.5t-35.5 14.5t-14.5 35.5zM104 337q0 12 8 20t20 8h50v-259q9 -9 23 -15.5
t34 -11t49 -4.5h19v-75h-19q-12 0 -28.5 2.5t-33 8.5t-32.5 15t-27 23q-12 -20 -41.5 -34.5t-72.5 -14.5h-73v75h48q42 0 59 20.5t17 52.5v189z" />
    <glyph glyph-name="thehfinalarabic" unicode="&#x62b;" horiz-adv-x="854" arabic-form="final" 
d="M662 337q0 11 8.5 19.5t19.5 8.5h50v-258q9 -9 23 -15.5t33.5 -11.5t48.5 -5h20v-75h-20q-12 0 -28.5 2.5t-33 8.5t-32 15.5t-27.5 23.5q-12 -20 -41 -35t-72 -15h-368q-57 0 -97 15t-64.5 40t-35.5 58t-11 69q0 28 3 51.5t7 41.5t11 34q41 -12 46 -14q11 -4 14.5 -11
t0.5 -23q-4 -17 -7 -31.5t-3 -39.5q0 -34 14 -56.5t37 -35.5t52.5 -18t60.5 -5h315q42 0 59 19.5t17 52.5v190zM272 444q0 21 14.5 35.5t35.5 14.5t35.5 -14.5t14.5 -35.5t-14.5 -35.5t-35.5 -14.5t-35.5 14.5t-14.5 35.5zM399 444q0 21 14.5 35.5t35.5 14.5t35.5 -14.5
t14.5 -35.5t-14.5 -35.5t-35.5 -14.5t-35.5 14.5t-14.5 35.5zM335 567q0 21 14.5 35.5t35.5 14.5t35.5 -14.5t14.5 -35.5t-14.5 -35.5t-35.5 -14.5t-35.5 14.5t-14.5 35.5z" />
    <glyph glyph-name="thehinitialarabic" unicode="&#x62b;" horiz-adv-x="301" arabic-form="initial" 
d="M74 496q0 21 14.5 35.5t35.5 14.5t35.5 -14.5t14.5 -35.5t-14.5 -35.5t-35.5 -14.5t-35.5 14.5t-14.5 35.5zM201 496q0 21 14.5 35.5t35.5 14.5t35.5 -14.5t14.5 -35.5t-14.5 -35.5t-35.5 -14.5t-35.5 14.5t-14.5 35.5zM137 619q0 21 14.5 35.5t35.5 14.5t35.5 -14.5
t14.5 -35.5t-14.5 -35.5t-35.5 -14.5t-35.5 14.5t-14.5 35.5zM155 337q0 12 8.5 20t19.5 8h50v-209q0 -80 -46 -118t-138 -38h-69v75h66q51 0 80 24t29 71v167z" />
    <glyph glyph-name="thehmedialarabic" unicode="&#x62b;" horiz-adv-x="297" arabic-form="medial" 
d="M31 496q0 21 14.5 35.5t35.5 14.5t35.5 -14.5t14.5 -35.5t-14.5 -35.5t-35.5 -14.5t-35.5 14.5t-14.5 35.5zM158 496q0 21 14.5 35.5t35.5 14.5t35.5 -14.5t14.5 -35.5t-14.5 -35.5t-35.5 -14.5t-35.5 14.5t-14.5 35.5zM94 619q0 21 14.5 35.5t35.5 14.5t35.5 -14.5
t14.5 -35.5t-14.5 -35.5t-35.5 -14.5t-35.5 14.5t-14.5 35.5zM104 337q0 12 8 20t20 8h50v-259q9 -9 23 -15.5t34 -11t49 -4.5h19v-75h-19q-12 0 -28.5 2.5t-33 8.5t-32.5 15t-27 23q-12 -20 -41.5 -34.5t-72.5 -14.5h-73v75h48q42 0 59 20.5t17 52.5v189z" />
    <glyph glyph-name="jeemfinalarabic" unicode="&#x62c;" horiz-adv-x="668" arabic-form="final" 
d="M548 41q-8 -21 -27 -31t-52 -10h-240q-23 0 -43 -3t-35 -12.5t-23.5 -27t-8.5 -45.5q0 -39 17 -68t40.5 -50t48.5 -36l42 -25q11 -8 10 -16.5t-5 -15.5q-2 -4 -22 -37q-58 26 -90 52.5t-50.5 46t-32.5 43t-23 51t-9 59.5q0 55 19 86.5t46 47.5t57 20.5t52 4.5h259v83
q0 37 -3 66.5t-16.5 50t-43 31.5t-81.5 11q-46 0 -89 -6.5t-67 -12.5q-25 -7 -28 12q-2 6 -13 51q28 7 58.5 12.5t66.5 10t77 4.5q58 0 99.5 -11.5t67 -37t37.5 -65.5t12 -96v-71q9 -9 23 -15.5t33.5 -11.5t48.5 -5h20v-75h-20q-23 0 -55.5 9.5t-56.5 31.5zM292 -125
q0 21 14.5 35.5t35.5 14.5t35.5 -14.5t14.5 -35.5t-14.5 -35.5t-35.5 -14.5t-35.5 14.5t-14.5 35.5z" />
    <glyph glyph-name="jeeminitialarabic" unicode="&#x62c;" horiz-adv-x="514" arabic-form="initial" 
d="M215 -107q0 21 14.5 35.5t35.5 14.5t35.5 -14.5t14.5 -35.5t-14.5 -35.5t-35.5 -14.5t-35.5 14.5t-14.5 35.5zM-20 75h417v83q0 37 -3 66.5t-17 50t-43 31.5t-81 11q-23 0 -46 -2t-43.5 -4.5t-37.5 -6t-29 -6.5q-25 -7 -29 12q-2 6 -12 51q27 7 57.5 12.5t67 10t77.5 4.5
q58 0 99.5 -11.5t67 -37t37.5 -65.5t12 -96v-88q0 -46 -18.5 -68t-68.5 -22h-407v75z" />
    <glyph glyph-name="jeemmedialarabic" unicode="&#x62c;" horiz-adv-x="610" arabic-form="medial" 
d="M235 -107q0 21 14.5 35.5t35.5 14.5t35.5 -14.5t14.5 -35.5t-14.5 -35.5t-35.5 -14.5t-35.5 14.5t-14.5 35.5zM487 41q-8 -21 -26.5 -31t-52.5 -10h-428v75h437v83q0 37 -3 66.5t-16.5 50t-43 31.5t-81.5 11q-46 0 -89 -6.5t-67 -12.5q-25 -7 -28 12l-12 51
q27 7 57.5 12.5t66.5 10t77 4.5q59 0 100 -11.5t67 -37t37.5 -65.5t11.5 -96v-71q9 -9 23 -15.5t34 -11.5t49 -5h19v-75h-19q-24 0 -56.5 9.5t-56.5 31.5z" />
    <glyph glyph-name="hahfinalarabic" unicode="&#x62d;" horiz-adv-x="668" arabic-form="final" 
d="M548 41q-8 -21 -27 -31t-52 -10h-240q-23 0 -43 -3t-35 -12.5t-23.5 -27t-8.5 -45.5q0 -39 17 -68t40.5 -50t48.5 -36l42 -25q11 -8 10 -16.5t-5 -15.5q-2 -4 -22 -37q-58 26 -90 52.5t-50.5 46t-32.5 43t-23 51t-9 59.5q0 55 19 86.5t46 47.5t57 20.5t52 4.5h259v83
q0 37 -3 66.5t-16.5 50t-43 31.5t-81.5 11q-46 0 -89 -6.5t-67 -12.5q-25 -7 -28 12q-2 6 -13 51q28 7 58.5 12.5t66.5 10t77 4.5q58 0 99.5 -11.5t67 -37t37.5 -65.5t12 -96v-71q9 -9 23 -15.5t33.5 -11.5t48.5 -5h20v-75h-20q-23 0 -55.5 9.5t-56.5 31.5z" />
    <glyph glyph-name="hahinitialarabic" unicode="&#x62d;" horiz-adv-x="514" arabic-form="initial" 
d="M-20 75h417v83q0 37 -3 66.5t-17 50t-43 31.5t-81 11q-23 0 -46 -2t-43.5 -4.5t-37.5 -6t-29 -6.5q-25 -7 -29 12q-2 6 -12 51q27 7 57.5 12.5t67 10t77.5 4.5q58 0 99.5 -11.5t67 -37t37.5 -65.5t12 -96v-88q0 -46 -18.5 -68t-68.5 -22h-407v75z" />
    <glyph glyph-name="hahmedialarabic" unicode="&#x62d;" horiz-adv-x="610" arabic-form="medial" 
d="M487 41q-8 -21 -26.5 -31t-52.5 -10h-428v75h437v83q0 37 -3 66.5t-16.5 50t-43 31.5t-81.5 11q-46 0 -89 -6.5t-67 -12.5q-25 -7 -28 12l-12 51q27 7 57.5 12.5t66.5 10t77 4.5q59 0 100 -11.5t67 -37t37.5 -65.5t11.5 -96v-71q9 -9 23 -15.5t34 -11.5t49 -5h19v-75h-19
q-24 0 -56.5 9.5t-56.5 31.5z" />
    <glyph glyph-name="khahfinalarabic" unicode="&#x62e;" horiz-adv-x="668" arabic-form="final" 
d="M261 522q0 21 14.5 35.5t35.5 14.5t35.5 -14.5t14.5 -35.5t-14.5 -35.5t-35.5 -14.5t-35.5 14.5t-14.5 35.5zM548 41q-8 -21 -27 -31t-52 -10h-240q-23 0 -43 -3t-35 -12.5t-23.5 -27t-8.5 -45.5q0 -39 17 -68t40.5 -50t48.5 -36l42 -25q11 -8 10 -16.5t-5 -15.5
q-2 -4 -22 -37q-58 26 -90 52.5t-50.5 46t-32.5 43t-23 51t-9 59.5q0 55 19 86.5t46 47.5t57 20.5t52 4.5h259v83q0 37 -3 66.5t-16.5 50t-43 31.5t-81.5 11q-46 0 -89 -6.5t-67 -12.5q-25 -7 -28 12q-2 6 -13 51q28 7 58.5 12.5t66.5 10t77 4.5q58 0 99.5 -11.5t67 -37
t37.5 -65.5t12 -96v-71q9 -9 23 -15.5t33.5 -11.5t48.5 -5h20v-75h-20q-23 0 -55.5 9.5t-56.5 31.5z" />
    <glyph glyph-name="khahinitialarabic" unicode="&#x62e;" horiz-adv-x="514" arabic-form="initial" 
d="M-20 75h417v83q0 37 -3 66.5t-17 50t-43 31.5t-81 11q-23 0 -46 -2t-43.5 -4.5t-37.5 -6t-29 -6.5q-25 -7 -29 12q-2 6 -12 51q27 7 57.5 12.5t67 10t77.5 4.5q58 0 99.5 -11.5t67 -37t37.5 -65.5t12 -96v-88q0 -46 -18.5 -68t-68.5 -22h-407v75zM180 523q0 21 14.5 35.5
t35.5 14.5t35.5 -14.5t14.5 -35.5t-14.5 -35.5t-35.5 -14.5t-35.5 14.5t-14.5 35.5z" />
    <glyph glyph-name="khahmedialarabic" unicode="&#x62e;" horiz-adv-x="610" arabic-form="medial" 
d="M487 41q-8 -21 -26.5 -31t-52.5 -10h-428v75h437v83q0 37 -3 66.5t-16.5 50t-43 31.5t-81.5 11q-46 0 -89 -6.5t-67 -12.5q-25 -7 -28 12l-12 51q27 7 57.5 12.5t66.5 10t77 4.5q59 0 100 -11.5t67 -37t37.5 -65.5t11.5 -96v-71q9 -9 23 -15.5t34 -11.5t49 -5h19v-75h-19
q-24 0 -56.5 9.5t-56.5 31.5zM200 522q0 21 14.5 35.5t35.5 14.5t35.5 -14.5t14.5 -35.5t-14.5 -35.5t-35.5 -14.5t-35.5 14.5t-14.5 35.5z" />
    <glyph glyph-name="dalfinalarabic" unicode="&#x62f;" horiz-adv-x="563" arabic-form="final" 
d="M45 55q0 20 19 20h312v75q0 40 -8 66t-25.5 43t-46 28t-60.5 18l-57 13l-45 9q-37 7 -31 34l10 45l63 -12q27 -6 71.5 -16.5t87.5 -31t68.5 -48t35.5 -60.5t10 -70v-60q9 -10 23 -16.5t33.5 -11.5t48.5 -5h20v-75h-20q-23 0 -55.5 9.5t-56.5 32.5q-8 -20 -29 -31t-63 -11
h-305v55z" />
    <glyph glyph-name="thalfinalarabic" unicode="&#x630;" horiz-adv-x="563" arabic-form="final" 
d="M45 55q0 20 19 20h312v75q0 40 -8 66t-25.5 43t-46 28t-60.5 18l-57 13l-45 9q-37 7 -31 34l10 45l63 -12q27 -6 71.5 -16.5t87.5 -31t68.5 -48t35.5 -60.5t10 -70v-60q9 -10 23 -16.5t33.5 -11.5t48.5 -5h20v-75h-20q-23 0 -55.5 9.5t-56.5 32.5q-8 -20 -29 -31t-63 -11
h-305v55zM133 515q0 21 14.5 35.5t35.5 14.5t35.5 -14.5t14.5 -35.5t-14.5 -35.5t-35.5 -14.5t-35.5 14.5t-14.5 35.5z" />
    <glyph glyph-name="rehfinalarabic" unicode="&#x631;" horiz-adv-x="341" arabic-form="final" 
d="M149 336q0 12 8.5 20.5t19.5 8.5h50v-259q2 -2 9 -7.5t20 -10.5t31.5 -9t43.5 -4h20v-75h-20q-21 0 -51 8t-53 26v-123q0 -47 -14 -77t-40 -45t-62.5 -15.5t-80.5 11.5q-14 5 -23.5 10.5t-5.5 20.5l11 47q21 -9 41.5 -14.5t31.5 -5.5q36 0 50 18t14 57v418z" />
    <glyph glyph-name="zainfinalarabic" unicode="&#x632;" horiz-adv-x="341" arabic-form="final" 
d="M149 336q0 12 8.5 20.5t19.5 8.5h50v-259q2 -2 9 -7.5t20 -10.5t31.5 -9t43.5 -4h20v-75h-20q-21 0 -51 8t-53 26v-123q0 -47 -14 -77t-40 -45t-62.5 -15.5t-80.5 11.5q-14 5 -23.5 10.5t-5.5 20.5l11 47q21 -9 41.5 -14.5t31.5 -5.5q36 0 50 18t14 57v418zM141 494
q0 21 14.5 35.5t35.5 14.5t35.5 -14.5t14.5 -35.5t-14.5 -35.5t-35.5 -14.5t-35.5 14.5t-14.5 35.5z" />
    <glyph glyph-name="seenfinalarabic" unicode="&#x633;" horiz-adv-x="1206" arabic-form="final" 
d="M649 0q-20 0 -48.5 7.5t-52.5 24.5v-35q0 -36 -10 -75.5t-36 -72.5t-71.5 -54.5t-116.5 -21.5q-47 0 -95.5 10.5t-87.5 39t-64 80t-25 134.5q0 23 3 51t8 56.5t11 55t13 47.5q46 -14 52 -16q11 -3 14.5 -11t-1.5 -23q-3 -12 -7 -30t-7 -39t-5.5 -44.5t-2.5 -46.5
q0 -64 19 -100.5t48 -54.5t65 -22t70 -4q45 0 73 12t44 32t22 47t6 57v265q0 11 8.5 19.5t19.5 8.5h50v-191q9 -9 23 -15.5t33.5 -11t48.5 -4.5q14 0 30.5 2t30 8t22.5 18.5t9 33.5v132q0 11 8.5 19.5t19.5 8.5h50v-182q13 -15 28.5 -23.5t30.5 -12t29.5 -4t27.5 -0.5h4
q42 0 59 20t17 53v188q0 12 8.5 20.5t19.5 8.5h50v-259q9 -9 23 -15.5t33.5 -11t48.5 -4.5h20v-75h-20q-12 0 -28.5 3t-33 9t-32 15.5t-27.5 22.5q-12 -20 -41 -35t-73 -15h-28q-34 0 -59 7.5t-42 17.5t-26.5 19.5t-12.5 13.5q-3 -4 -11 -12.5t-23 -18t-37 -17.5t-54 -10
h-22z" />
    <glyph glyph-name="seeninitialarabic" unicode="&#x633;" horiz-adv-x="784" arabic-form="initial" 
d="M552 0q-28 0 -50 7.5t-38 17.5t-25.5 19.5t-12.5 13.5q-3 -4 -10.5 -12.5t-22 -18t-37 -17.5t-53.5 -10h-21q-12 0 -28 2.5t-32.5 8.5t-32 15.5t-27.5 22.5q-12 -20 -41 -34.5t-74 -14.5h-67v75h44q42 0 59 20.5t17 52.5v121q0 11 8.5 19.5t19.5 8.5h50v-191
q9 -9 23 -15.5t33.5 -11t48.5 -4.5q14 0 29.5 2t29 8.5t22.5 19t9 33.5v131q0 11 8.5 19.5t19.5 8.5h51v-182q22 -26 49 -33t51 -7q60 0 81 26.5t21 78.5v156q0 12 8.5 20.5t19.5 8.5h51v-183q0 -41 -8 -74.5t-28 -57.5t-55.5 -37t-89.5 -13z" />
    <glyph glyph-name="seenmedialarabic" unicode="&#x633;" horiz-adv-x="839" arabic-form="medial" 
d="M565 0q-34 0 -59 7.5t-42.5 17.5t-27 19.5t-12.5 13.5q-3 -4 -11 -12.5t-22.5 -18t-37 -17.5t-53.5 -10h-20q-13 0 -29 2.5t-32.5 8.5t-32 15.5t-27.5 22.5q-12 -20 -41 -34.5t-72 -14.5h-66v75h45q41 0 56.5 21.5t15.5 53.5v119q0 11 8.5 19.5t19.5 8.5h50v-191
q9 -9 23 -15.5t33 -11t48 -4.5q14 0 30.5 2t30 8t22.5 18.5t9 33.5v132q0 11 8.5 19.5t19.5 8.5h50v-182q13 -15 28 -23.5t30.5 -12t30 -4t27.5 -0.5h4q42 0 58.5 20t16.5 53v188q0 12 8.5 20.5t19.5 8.5h51v-259q9 -9 23 -15.5t33.5 -11t48.5 -4.5h19v-75h-19
q-12 0 -28.5 3t-33 9t-32.5 15.5t-27 22.5q-12 -20 -41 -35t-73 -15h-28z" />
    <glyph glyph-name="sheenfinalarabic" unicode="&#x634;" horiz-adv-x="1206" arabic-form="final" 
d="M649 0q-20 0 -48.5 7.5t-52.5 24.5v-35q0 -36 -10 -75.5t-36 -72.5t-71.5 -54.5t-116.5 -21.5q-47 0 -95.5 10.5t-87.5 39t-64 80t-25 134.5q0 23 3 51t8 56.5t11 55t13 47.5q46 -14 52 -16q11 -3 14.5 -11t-1.5 -23q-3 -12 -7 -30t-7 -39t-5.5 -44.5t-2.5 -46.5
q0 -64 19 -100.5t48 -54.5t65 -22t70 -4q45 0 73 12t44 32t22 47t6 57v265q0 11 8.5 19.5t19.5 8.5h50v-191q9 -9 23 -15.5t33.5 -11t48.5 -4.5q14 0 30.5 2t30 8t22.5 18.5t9 33.5v132q0 11 8.5 19.5t19.5 8.5h50v-182q13 -15 28.5 -23.5t30.5 -12t29.5 -4t27.5 -0.5h4
q42 0 59 20t17 53v188q0 12 8.5 20.5t19.5 8.5h50v-259q9 -9 23 -15.5t33.5 -11t48.5 -4.5h20v-75h-20q-12 0 -28.5 3t-33 9t-32 15.5t-27.5 22.5q-12 -20 -41 -35t-73 -15h-28q-34 0 -59 7.5t-42 17.5t-26.5 19.5t-12.5 13.5q-3 -4 -11 -12.5t-23 -18t-37 -17.5t-54 -10
h-22zM674 462q0 21 14.5 35.5t35.5 14.5t35.5 -14.5t14.5 -35.5t-14.5 -35.5t-35.5 -14.5t-35.5 14.5t-14.5 35.5zM801 462q0 21 14.5 35.5t35.5 14.5t35.5 -14.5t14.5 -35.5t-14.5 -35.5t-35.5 -14.5t-35.5 14.5t-14.5 35.5zM737 585q0 21 14.5 35.5t35.5 14.5t35.5 -14.5
t14.5 -35.5t-14.5 -35.5t-35.5 -14.5t-35.5 14.5t-14.5 35.5z" />
    <glyph glyph-name="sheeninitialarabic" unicode="&#x634;" horiz-adv-x="784" arabic-form="initial" 
d="M312 463q0 21 14.5 35.5t35.5 14.5t35.5 -14.5t14.5 -35.5t-14.5 -35.5t-35.5 -14.5t-35.5 14.5t-14.5 35.5zM439 463q0 21 14.5 35.5t35.5 14.5t35.5 -14.5t14.5 -35.5t-14.5 -35.5t-35.5 -14.5t-35.5 14.5t-14.5 35.5zM375 586q0 21 14.5 35.5t35.5 14.5t35.5 -14.5
t14.5 -35.5t-14.5 -35.5t-35.5 -14.5t-35.5 14.5t-14.5 35.5zM552 0q-28 0 -50 7.5t-38 17.5t-25.5 19.5t-12.5 13.5q-3 -4 -10.5 -12.5t-22 -18t-37 -17.5t-53.5 -10h-21q-12 0 -28 2.5t-32.5 8.5t-32 15.5t-27.5 22.5q-12 -20 -41 -34.5t-74 -14.5h-67v75h44q42 0 59 20.5
t17 52.5v121q0 11 8.5 19.5t19.5 8.5h50v-191q9 -9 23 -15.5t33.5 -11t48.5 -4.5q14 0 29.5 2t29 8.5t22.5 19t9 33.5v131q0 11 8.5 19.5t19.5 8.5h51v-182q22 -26 49 -33t51 -7q60 0 81 26.5t21 78.5v156q0 12 8.5 20.5t19.5 8.5h51v-183q0 -41 -8 -74.5t-28 -57.5
t-55.5 -37t-89.5 -13z" />
    <glyph glyph-name="sheenmedialarabic" unicode="&#x634;" horiz-adv-x="839" arabic-form="medial" 
d="M565 0q-34 0 -59 7.5t-42.5 17.5t-27 19.5t-12.5 13.5q-3 -4 -11 -12.5t-22.5 -18t-37 -17.5t-53.5 -10h-20q-13 0 -29 2.5t-32.5 8.5t-32 15.5t-27.5 22.5q-12 -20 -41 -34.5t-72 -14.5h-66v75h45q41 0 56.5 21.5t15.5 53.5v119q0 11 8.5 19.5t19.5 8.5h50v-191
q9 -9 23 -15.5t33 -11t48 -4.5q14 0 30.5 2t30 8t22.5 18.5t9 33.5v132q0 11 8.5 19.5t19.5 8.5h50v-182q13 -15 28 -23.5t30.5 -12t30 -4t27.5 -0.5h4q42 0 58.5 20t16.5 53v188q0 12 8.5 20.5t19.5 8.5h51v-259q9 -9 23 -15.5t33.5 -11t48.5 -4.5h19v-75h-19
q-12 0 -28.5 3t-33 9t-32.5 15.5t-27 22.5q-12 -20 -41 -35t-73 -15h-28zM303 463q0 21 14.5 35.5t35.5 14.5t35.5 -14.5t14.5 -35.5t-14.5 -35.5t-35.5 -14.5t-35.5 14.5t-14.5 35.5zM430 463q0 21 14.5 35.5t35.5 14.5t35.5 -14.5t14.5 -35.5t-14.5 -35.5t-35.5 -14.5
t-35.5 14.5t-14.5 35.5zM366 586q0 21 14.5 35.5t35.5 14.5t35.5 -14.5t14.5 -35.5t-14.5 -35.5t-35.5 -14.5t-35.5 14.5t-14.5 35.5z" />
    <glyph glyph-name="sadfinalarabic" unicode="&#x635;" horiz-adv-x="1162" arabic-form="final" 
d="M483 361q0 11 8.5 19.5t19.5 8.5h50v-56l354 56q20 3 42.5 -1t44 -15t38 -25.5t29 -35.5t20.5 -49.5t8 -66.5q0 -29 -4.5 -56t-14.5 -51q13 -5 31.5 -9.5t44.5 -4.5h19v-75h-19q-23 0 -55.5 9t-55.5 30q-20 -18 -49 -28.5t-70 -10.5h-363q0 -49 -9 -90t-34.5 -71.5
t-70.5 -48t-116 -17.5q-47 0 -97.5 10.5t-92.5 39t-69 80t-27 134.5q0 23 3 51t8 56.5t11 55t13 47.5l51 -16q13 -4 15.5 -11t-1.5 -23q-7 -24 -14 -69t-7 -91q0 -64 20.5 -100.5t52 -54.5t69.5 -22t72 -4q45 0 73.5 9.5t44.5 28t21.5 46t5.5 64.5v357zM909 75
q13 0 32.5 4.5t37.5 17t31 35t13 58.5q0 42 -12.5 67t-30 38.5t-36.5 18t-32 4.5l-351 -60v-183h348z" />
    <glyph glyph-name="sadinitialarabic" unicode="&#x635;" horiz-adv-x="704" arabic-form="initial" 
d="M46 361q0 11 8.5 19.5t19.5 8.5h51v-56l354 56q20 2 43 -2.5t44 -15t37.5 -24.5t29 -35t20.5 -49.5t8 -66.5t-8 -73.5t-28 -62.5t-53.5 -43.5t-84.5 -16.5h-507v75h66v286zM472 75q13 0 32.5 4.5t37.5 17t31 35t13 58.5q0 42 -12.5 67t-30 38.5t-36.5 18t-32 4.5
l-350 -60v-183h347z" />
    <glyph glyph-name="sadmedialarabic" unicode="&#x635;" horiz-adv-x="748" arabic-form="medial" 
d="M70 361q0 11 8.5 19.5t19.5 8.5h50v-56l355 56q23 2 45 -2t42 -14t37 -25t29.5 -36t20.5 -49.5t8 -66.5q0 -29 -4.5 -56t-14.5 -51q13 -5 31 -9.5t44 -4.5h20v-75h-20q-23 0 -55 9t-56 30q-20 -18 -49 -28.5t-69 -10.5h-532v75h90v286zM497 75q13 0 32.5 4.5t37.5 17
t31 35t13 58.5q0 42 -12.5 67t-30.5 38.5t-37 18t-32 4.5l-351 -60v-183h349z" />
    <glyph glyph-name="dadfinalarabic" unicode="&#x636;" horiz-adv-x="1162" arabic-form="final" 
d="M483 361q0 11 8.5 19.5t19.5 8.5h50v-56l354 56q20 3 42.5 -1t44 -15t38 -25.5t29 -35.5t20.5 -49.5t8 -66.5q0 -29 -4.5 -56t-14.5 -51q13 -5 31.5 -9.5t44.5 -4.5h19v-75h-19q-23 0 -55.5 9t-55.5 30q-20 -18 -49 -28.5t-70 -10.5h-363q0 -49 -9 -90t-34.5 -71.5
t-70.5 -48t-116 -17.5q-47 0 -97.5 10.5t-92.5 39t-69 80t-27 134.5q0 23 3 51t8 56.5t11 55t13 47.5l51 -16q13 -4 15.5 -11t-1.5 -23q-7 -24 -14 -69t-7 -91q0 -64 20.5 -100.5t52 -54.5t69.5 -22t72 -4q45 0 73.5 9.5t44.5 28t21.5 46t5.5 64.5v357zM909 75
q13 0 32.5 4.5t37.5 17t31 35t13 58.5q0 42 -12.5 67t-30 38.5t-36.5 18t-32 4.5l-351 -60v-183h348zM596 494q0 21 14.5 35.5t35.5 14.5t35.5 -14.5t14.5 -35.5t-14.5 -35.5t-35.5 -14.5t-35.5 14.5t-14.5 35.5z" />
    <glyph glyph-name="dadinitialarabic" unicode="&#x636;" horiz-adv-x="704" arabic-form="initial" 
d="M46 361q0 11 8.5 19.5t19.5 8.5h51v-56l354 56q20 2 43 -2.5t44 -15t37.5 -24.5t29 -35t20.5 -49.5t8 -66.5t-8 -73.5t-28 -62.5t-53.5 -43.5t-84.5 -16.5h-507v75h66v286zM472 75q13 0 32.5 4.5t37.5 17t31 35t13 58.5q0 42 -12.5 67t-30 38.5t-36.5 18t-32 4.5
l-350 -60v-183h347zM163 496q0 21 14.5 35.5t35.5 14.5t35.5 -14.5t14.5 -35.5t-14.5 -35.5t-35.5 -14.5t-35.5 14.5t-14.5 35.5z" />
    <glyph glyph-name="dadmedialarabic" unicode="&#x636;" horiz-adv-x="748" arabic-form="medial" 
d="M70 361q0 11 8.5 19.5t19.5 8.5h50v-56l355 56q23 2 45 -2t42 -14t37 -25t29.5 -36t20.5 -49.5t8 -66.5q0 -29 -4.5 -56t-14.5 -51q13 -5 31 -9.5t44 -4.5h20v-75h-20q-23 0 -55 9t-56 30q-20 -18 -49 -28.5t-69 -10.5h-532v75h90v286zM497 75q13 0 32.5 4.5t37.5 17
t31 35t13 58.5q0 42 -12.5 67t-30.5 38.5t-37 18t-32 4.5l-351 -60v-183h349zM185 495q0 21 14.5 35.5t35.5 14.5t35.5 -14.5t14.5 -35.5t-14.5 -35.5t-35.5 -14.5t-35.5 14.5t-14.5 35.5z" />
    <glyph glyph-name="tahfinalarabic" unicode="&#x637;" horiz-adv-x="785" arabic-form="final" 
d="M104 523q0 11 8.5 19.5t19.5 8.5h50v-219l358 57q16 2 42 -2.5t46.5 -14.5t36.5 -24.5t28.5 -35.5t20.5 -49.5t8 -66.5q0 -29 -4.5 -56t-15.5 -51q13 -5 31.5 -9.5t44.5 -4.5h20v-75h-20q-23 0 -55 9t-56 30q-20 -18 -49 -28.5t-70 -10.5h-502v44q0 17 7 24t19 7h32v448z
M534 75q13 0 32 4.5t37 17t31 34.5t13 58q0 42 -12.5 67.5t-30 39t-36.5 18t-32 4.5l-354 -60v-183h352z" />
    <glyph glyph-name="tahinitialarabic" unicode="&#x637;" horiz-adv-x="731" arabic-form="initial" 
d="M68 523q0 11 8.5 19.5t19.5 8.5h51v-219l357 57q18 2 42.5 -2t45.5 -14.5t37 -25t28.5 -35.5t20.5 -49.5t8 -66.5t-8 -73.5t-28 -62.5t-53.5 -43.5t-84.5 -16.5h-532v75h88v448zM497 75q13 0 32.5 4.5t37.5 17t31 34.5t13 58q0 42 -12.5 67.5t-30 39t-36.5 18t-32 4.5
l-353 -60v-183h350z" />
    <glyph glyph-name="tahmedialarabic" unicode="&#x637;" horiz-adv-x="748" arabic-form="medial" 
d="M68 523q0 11 8.5 19.5t19.5 8.5h50v-219l357 57q13 2 40 -2.5t48 -15t37 -24.5t28.5 -35t20.5 -49.5t8 -66.5q0 -29 -4.5 -56t-14.5 -51q13 -5 31.5 -9.5t44.5 -4.5h19v-75h-19q-23 0 -55.5 9t-56.5 30q-20 -18 -48.5 -28.5t-69.5 -10.5h-532v75h88v448zM497 75
q13 0 32.5 4.5t37.5 17t31 34.5t13 58q0 42 -12.5 67.5t-30 39t-36.5 18t-32 4.5l-354 -60v-183h351z" />
    <glyph glyph-name="zahfinalarabic" unicode="&#x638;" horiz-adv-x="785" arabic-form="final" 
d="M276 494q0 21 14.5 35.5t35.5 14.5t35.5 -14.5t14.5 -35.5t-14.5 -35.5t-35.5 -14.5t-35.5 14.5t-14.5 35.5zM104 523q0 11 8.5 19.5t19.5 8.5h50v-219l358 57q16 2 42 -2.5t46.5 -14.5t36.5 -24.5t28.5 -35.5t20.5 -49.5t8 -66.5q0 -29 -4.5 -56t-15.5 -51
q13 -5 31.5 -9.5t44.5 -4.5h20v-75h-20q-23 0 -55 9t-56 30q-20 -18 -49 -28.5t-70 -10.5h-502v44q0 17 7 24t19 7h32v448zM534 75q13 0 32 4.5t37 17t31 34.5t13 58q0 42 -12.5 67.5t-30 39t-36.5 18t-32 4.5l-354 -60v-183h352z" />
    <glyph glyph-name="zahinitialarabic" unicode="&#x638;" horiz-adv-x="731" arabic-form="initial" 
d="M68 523q0 11 8.5 19.5t19.5 8.5h51v-219l357 57q18 2 42.5 -2t45.5 -14.5t37 -25t28.5 -35.5t20.5 -49.5t8 -66.5t-8 -73.5t-28 -62.5t-53.5 -43.5t-84.5 -16.5h-532v75h88v448zM497 75q13 0 32.5 4.5t37.5 17t31 34.5t13 58q0 42 -12.5 67.5t-30 39t-36.5 18t-32 4.5
l-353 -60v-183h350zM241 494q0 21 14.5 35.5t35.5 14.5t35.5 -14.5t14.5 -35.5t-14.5 -35.5t-35.5 -14.5t-35.5 14.5t-14.5 35.5z" />
    <glyph glyph-name="zahmedialarabic" unicode="&#x638;" horiz-adv-x="748" arabic-form="medial" 
d="M68 523q0 11 8.5 19.5t19.5 8.5h50v-219l357 57q13 2 40 -2.5t48 -15t37 -24.5t28.5 -35t20.5 -49.5t8 -66.5q0 -29 -4.5 -56t-14.5 -51q13 -5 31.5 -9.5t44.5 -4.5h19v-75h-19q-23 0 -55.5 9t-56.5 30q-20 -18 -48.5 -28.5t-69.5 -10.5h-532v75h88v448zM497 75
q13 0 32.5 4.5t37.5 17t31 34.5t13 58q0 42 -12.5 67.5t-30 39t-36.5 18t-32 4.5l-354 -60v-183h351zM242 494q0 21 14.5 35.5t35.5 14.5t35.5 -14.5t14.5 -35.5t-14.5 -35.5t-35.5 -14.5t-35.5 14.5t-14.5 35.5z" />
    <glyph glyph-name="ainfinalarabic" unicode="&#x639;" horiz-adv-x="634" arabic-form="final" 
d="M196 0q-13 0 -28.5 -1.5t-29 -8t-23 -21t-9.5 -40.5q0 -36 16.5 -68t40 -58.5t49 -46t43.5 -30.5q8 -6 10 -14t-4 -19l-26 -39q-58 31 -90 59.5t-50.5 50t-32.5 46.5t-23 53.5t-9 60.5q0 46 15 75t38 46t49.5 23.5t48.5 6.5h85l-120 139q0 48 19 83t49.5 58t70.5 34.5
t82 11.5t81 -10.5t68.5 -33.5t47 -58.5t17.5 -84.5l-119 -139h184v-75h-228q-27 0 -40.5 11t-15.5 26q-3 -15 -15 -26t-34 -11h-117zM376 81l129 149q0 16 -9 34.5t-26 34.5t-43 26t-60 10t-61 -11t-45.5 -27t-28.5 -34t-10 -33l130 -149q10 -13 11 -26q3 15 13 26z" />
    <glyph glyph-name="aininitialarabic" unicode="&#x639;" horiz-adv-x="454" arabic-form="initial" 
d="M366 75q11 0 19.5 -8.5t8.5 -19.5v-47h-414v75h97q-11 10 -20.5 26t-13.5 40t-4 59q0 44 10.5 79t35 59.5t64 37.5t97.5 13q29 0 56 -3t51.5 -7t48.5 -10q-10 -35 -12 -41q-5 -14 -14 -20t-30 -2l-44 5q-26 3 -66 3q-36 0 -58 -9t-35 -24.5t-17.5 -37t-4.5 -45.5
q0 -39 10 -63.5t23.5 -37.5t28 -17.5t23.5 -4.5h160z" />
    <glyph glyph-name="ainmedialarabic" unicode="&#x639;" horiz-adv-x="529" arabic-form="medial" 
d="M-20 75h187l-120 139q0 48 19 83t49.5 58t70.5 34.5t82 11.5t80.5 -10.5t68.5 -33.5t47.5 -58.5t17.5 -84.5l-119 -139h184v-75h-228q-27 0 -40.5 11t-15.5 26q-3 -15 -15 -26t-34 -11h-234v75zM277 81l129 149q0 16 -9 34.5t-26.5 34.5t-43 26t-59.5 10t-61 -11
t-45.5 -27t-28.5 -34t-10 -33l130 -149q10 -13 11 -26q3 15 13 26z" />
    <glyph glyph-name="ghainfinalarabic" unicode="&#x63a;" horiz-adv-x="634" arabic-form="final" 
d="M196 0q-13 0 -28.5 -1.5t-29 -8t-23 -21t-9.5 -40.5q0 -36 16.5 -68t40 -58.5t49 -46t43.5 -30.5q8 -6 10 -14t-4 -19l-26 -39q-58 31 -90 59.5t-50.5 50t-32.5 46.5t-23 53.5t-9 60.5q0 46 15 75t38 46t49.5 23.5t48.5 6.5h85l-120 139q0 48 19 83t49.5 58t70.5 34.5
t82 11.5t81 -10.5t68.5 -33.5t47 -58.5t17.5 -84.5l-119 -139h184v-75h-228q-27 0 -40.5 11t-15.5 26q-3 -15 -15 -26t-34 -11h-117zM376 81l129 149q0 16 -9 34.5t-26 34.5t-43 26t-60 10t-61 -11t-45.5 -27t-28.5 -34t-10 -33l130 -149q10 -13 11 -26q3 15 13 26zM317 503
q0 21 14.5 35.5t35.5 14.5t35.5 -14.5t14.5 -35.5t-14.5 -35.5t-35.5 -14.5t-35.5 14.5t-14.5 35.5z" />
    <glyph glyph-name="ghaininitialarabic" unicode="&#x63a;" horiz-adv-x="454" arabic-form="initial" 
d="M366 75q11 0 19.5 -8.5t8.5 -19.5v-47h-414v75h97q-11 10 -20.5 26t-13.5 40t-4 59q0 44 10.5 79t35 59.5t64 37.5t97.5 13q29 0 56 -3t51.5 -7t48.5 -10q-10 -35 -12 -41q-5 -14 -14 -20t-30 -2l-44 5q-26 3 -66 3q-36 0 -58 -9t-35 -24.5t-17.5 -37t-4.5 -45.5
q0 -39 10 -63.5t23.5 -37.5t28 -17.5t23.5 -4.5h160zM195 503q0 21 14.5 35.5t35.5 14.5t35.5 -14.5t14.5 -35.5t-14.5 -35.5t-35.5 -14.5t-35.5 14.5t-14.5 35.5z" />
    <glyph glyph-name="ghainmedialarabic" unicode="&#x63a;" horiz-adv-x="529" arabic-form="medial" 
d="M-20 75h187l-120 139q0 48 19 83t49.5 58t70.5 34.5t82 11.5t80.5 -10.5t68.5 -33.5t47.5 -58.5t17.5 -84.5l-119 -139h184v-75h-228q-27 0 -40.5 11t-15.5 26q-3 -15 -15 -26t-34 -11h-234v75zM277 81l129 149q0 16 -9 34.5t-26.5 34.5t-43 26t-59.5 10t-61 -11
t-45.5 -27t-28.5 -34t-10 -33l130 -149q10 -13 11 -26q3 15 13 26zM219 503q0 21 14.5 35.5t35.5 14.5t35.5 -14.5t14.5 -35.5t-14.5 -35.5t-35.5 -14.5t-35.5 14.5t-14.5 35.5z" />
    <glyph glyph-name="fehfinalarabic" unicode="&#x641;" horiz-adv-x="1022" arabic-form="final" 
d="M829 297l-25 6q-13 3 -28.5 5.5t-32.5 2.5q-38 0 -62.5 -10t-38 -26t-18.5 -36.5t-5 -41.5q0 -35 9 -58.5t21.5 -37.5t25.5 -20t21 -6h82q28 0 39.5 13.5t11.5 38.5v170zM908 106q9 -9 23 -15.5t33.5 -11t48.5 -4.5h19v-75h-19q-26 0 -62 12t-59 38q-12 -20 -41 -35
t-72 -15h-524q-50 0 -88 15.5t-63.5 42.5t-38.5 62.5t-13 76.5q0 29 3 53t7.5 42.5t11.5 35.5q43 -14 51 -17q10 -3 13.5 -11t0.5 -23q-4 -17 -6.5 -32.5t-2.5 -40.5q0 -40 13 -65t34 -39.5t47.5 -19.5t54.5 -5h298q-1 0 -7 7t-12.5 22t-12 38.5t-5.5 57.5q0 43 12.5 77.5
t38.5 59.5t66.5 38.5t96.5 13.5q28 0 55.5 -6t51.5 -13.5t47 -17.5v-246zM715 518q0 21 14.5 35.5t35.5 14.5t35.5 -14.5t14.5 -35.5t-14.5 -35.5t-35.5 -14.5t-35.5 14.5t-14.5 35.5z" />
    <glyph glyph-name="fehinitialarabic" unicode="&#x641;" horiz-adv-x="485" arabic-form="initial" 
d="M232 588q0 21 14.5 35.5t35.5 14.5t35.5 -14.5t14.5 -35.5t-14.5 -35.5t-35.5 -14.5t-35.5 14.5t-14.5 35.5zM-20 0v75h268q50 0 82 14.5t32 55.5q-17 -9 -46 -15.5t-61 -6.5q-50 0 -84 11.5t-55 33t-30 52.5t-9 70t10.5 69.5t33.5 52t60 33t91 11.5q28 0 57 -6t55 -14.5
t52 -18.5v-254q0 -32 -8.5 -61.5t-29.5 -52t-57 -36t-91 -13.5h-270zM254 193q28 0 47.5 2.5t33.5 6.5t23 9v155q-25 8 -46 13t-51 5q-51 0 -80 -21.5t-29 -78.5q0 -27 8 -44.5t22 -28t32.5 -14.5t39.5 -4z" />
    <glyph glyph-name="fehmedialarabic" unicode="&#x641;" horiz-adv-x="492" arabic-form="medial" 
d="M194 530q0 21 14.5 35.5t35.5 14.5t35.5 -14.5t14.5 -35.5t-14.5 -35.5t-35.5 -14.5t-35.5 14.5t-14.5 35.5zM510 75v-75h-530v75h147l-11 9q-12 10 -26 27.5t-25.5 43.5t-11.5 59q0 41 10.5 75.5t33.5 59t59 38t87 13.5q38 0 73 -9t61.5 -30t42.5 -57t16 -90
q0 -35 -12.5 -61t-27.5 -43q-18 -20 -40 -35h154zM362 216q0 22 -5 43t-21.5 37t-40.5 25.5t-51 9.5q-32 0 -54.5 -9.5t-36.5 -25.5t-20.5 -37t-6.5 -43q0 -23 8 -41.5t23.5 -35t37.5 -32t49 -32.5l40 26q21 14 38 31.5t28.5 38t11.5 45.5z" />
    <glyph glyph-name="qaffinalarabic" unicode="&#x642;" horiz-adv-x="717" arabic-form="final" 
d="M603 -36q0 -45 -7 -87.5t-33 -75t-78 -52t-143 -19.5q-68 0 -123 12t-93.5 39.5t-59.5 71.5t-21 107q0 37 4.5 65.5t9.5 45.5q3 9 10 12.5t15 1.5l52 -17q-4 -16 -7 -34q-2 -15 -4 -32.5t-2 -34.5q0 -56 18.5 -88t49 -48.5t70 -21t81.5 -4.5q62 0 98.5 12t55 32.5t24 46
t5.5 52.5v52h-101q-59 0 -97 14t-59.5 39t-29.5 60.5t-6 78.5q4 77 56 123.5t157 46.5q28 0 56 -6t52.5 -13.5t49.5 -17.5v-250h124v-75h-124v-36zM415 75h110v197q-37 12 -75 15t-69 -6.5t-50.5 -35t-19.5 -71.5q0 -29 6 -48.5t18.5 -30.5t32.5 -15.5t47 -4.5zM321 492
q0 21 14.5 35.5t35.5 14.5t35.5 -14.5t14.5 -35.5t-14.5 -35.5t-35.5 -14.5t-35.5 14.5t-14.5 35.5zM449 492q0 21 14.5 35.5t35.5 14.5t35.5 -14.5t14.5 -35.5t-14.5 -35.5t-35.5 -14.5t-35.5 14.5t-14.5 35.5z" />
    <glyph glyph-name="qafinitialarabic" unicode="&#x642;" horiz-adv-x="485" arabic-form="initial" 
d="M-20 0v75h268q50 0 82 14.5t32 55.5q-17 -9 -46 -15.5t-61 -6.5q-50 0 -84 11.5t-55 33t-30 52.5t-9 70t10.5 69.5t33.5 52t60 33t91 11.5q28 0 57 -6t55 -14.5t52 -18.5v-254q0 -32 -8.5 -61.5t-29.5 -52t-57 -36t-91 -13.5h-270zM254 193q28 0 47.5 2.5t33.5 6.5t23 9
v155q-25 8 -46 13t-51 5q-51 0 -80 -21.5t-29 -78.5q0 -27 8 -44.5t22 -28t32.5 -14.5t39.5 -4zM175 587q0 21 14.5 35.5t35.5 14.5t35.5 -14.5t14.5 -35.5t-14.5 -35.5t-35.5 -14.5t-35.5 14.5t-14.5 35.5zM303 587q0 21 14.5 35.5t35.5 14.5t35.5 -14.5t14.5 -35.5
t-14.5 -35.5t-35.5 -14.5t-35.5 14.5t-14.5 35.5z" />
    <glyph glyph-name="qafmedialarabic" unicode="&#x642;" horiz-adv-x="492" arabic-form="medial" 
d="M510 75v-75h-530v75h147l-11 9q-12 10 -26 27.5t-25.5 43.5t-11.5 59q0 41 10.5 75.5t33.5 59t59 38t87 13.5q38 0 73 -9t61.5 -30t42.5 -57t16 -90q0 -35 -12.5 -61t-27.5 -43q-18 -20 -40 -35h154zM362 216q0 22 -5 43t-21.5 37t-40.5 25.5t-51 9.5q-32 0 -54.5 -9.5
t-36.5 -25.5t-20.5 -37t-6.5 -43q0 -23 8 -41.5t23.5 -35t37.5 -32t49 -32.5l40 26q21 14 38 31.5t28.5 38t11.5 45.5zM131 530q0 21 14.5 35.5t35.5 14.5t35.5 -14.5t14.5 -35.5t-14.5 -35.5t-35.5 -14.5t-35.5 14.5t-14.5 35.5zM259 530q0 21 14.5 35.5t35.5 14.5
t35.5 -14.5t14.5 -35.5t-14.5 -35.5t-35.5 -14.5t-35.5 14.5t-14.5 35.5z" />
    <glyph glyph-name="kaffinalarabic" unicode="&#x643;" horiz-adv-x="817" arabic-form="final" 
d="M702 107q9 -9 23 -15.5t33.5 -11.5t48.5 -5h20v-75h-20q-13 0 -29 3t-32.5 9t-32 15.5t-27.5 23.5q-11 -20 -40.5 -35.5t-73.5 -15.5h-292q-59 0 -102.5 15.5t-71.5 42.5t-41.5 63t-13.5 76q0 29 3 53t8 42.5t12 35.5l49 -16q11 -4 15 -10.5t1 -23.5q-4 -17 -6.5 -32.5
t-2.5 -40.5q0 -40 13 -65.5t34 -39.5t48 -19.5t55 -5.5h268q42 0 59 20t17 53v433q0 12 7.5 20t18.5 8h52v-502zM287 303v26q0 11 5.5 16.5t12.5 5.5h8q-5 6 -8 14.5t-3 24.5q0 21 8 37.5t22 26.5t32 14t38 4q14 0 27 -1.5t23.5 -4t20.5 -4.5l-5 -29q-2 -8 -6.5 -12.5
t-10.5 -3.5q-2 0 -16.5 2.5t-31.5 2.5q-32 0 -42.5 -11.5t-10.5 -21.5q0 -14 6 -20.5t13 -10.5t16.5 -5.5t17.5 -1.5h51q8 0 11 -5t3 -10v-33h-181z" />
    <glyph glyph-name="kafinitialarabic" unicode="&#x643;" horiz-adv-x="546" arabic-form="initial" 
d="M-20 0v75h440v45q0 31 -6.5 60.5t-25 52t-53 36t-91.5 13.5h-131q-11 0 -17 3.5t-13 11.5l-31 52l335 260l41 -44q5 -6 4.5 -14.5t-7.5 -14.5q-1 -1 -242 -184h88q61 0 104 -16.5t69.5 -47.5t38.5 -75.5t12 -99.5v-82q0 -14 -6 -22.5t-16 -8.5h-493z" />
    <glyph glyph-name="kafmedialarabic" unicode="&#x643;" horiz-adv-x="608" arabic-form="medial" 
d="M496 108q9 -10 23 -16.5t33.5 -11.5t48.5 -5h20v-75h-20q-24 0 -56.5 10t-55.5 32q-8 -20 -29 -31t-63 -11h-417v75h441v45q0 31 -6.5 60.5t-25 52t-53 36t-91.5 13.5h-133q-11 0 -17 3.5t-13 11.5l-31 52l337 260q35 -37 41 -44q7 -8 5.5 -16t-8.5 -13q-1 -1 -242 -184
h88q61 0 104 -16.5t69.5 -47.5t38.5 -75.5t12 -99.5v-5z" />
    <glyph glyph-name="lamfinalarabic" unicode="&#x644;" horiz-adv-x="714" arabic-form="final" 
d="M603 107q2 -2 9 -7.5t20 -11t31.5 -9.5t43.5 -4h19v-75h-19q-21 0 -51 8t-53 27v-38q0 -36 -9 -75.5t-36.5 -72.5t-78 -54.5t-132.5 -21.5q-48 0 -100 10t-96 39t-72.5 80t-28.5 134q0 23 2.5 51t7.5 56.5t11 55.5t14 47q38 -11 50 -16q12 -4 15 -11t0 -22
q-8 -24 -15 -69t-7 -92q0 -64 22.5 -100t56.5 -54t73.5 -22.5t72.5 -4.5q55 0 89 12t52.5 32t24.5 47.5t6 57.5v577q0 12 7 20t18 8h53v-502z" />
    <glyph glyph-name="laminitialarabic" unicode="&#x644;" horiz-adv-x="273" arabic-form="initial" 
d="M209 201q0 -47 -8.5 -84t-29.5 -63t-57.5 -40t-92.5 -14h-41v75h41q57 0 83.5 24.5t26.5 70.5v411q0 12 7.5 20t18.5 8h52v-408z" />
    <glyph glyph-name="lammedialarabic" unicode="&#x644;" horiz-adv-x="291" arabic-form="medial" 
d="M109 581q0 12 7 20t18 8h53v-502q9 -9 23 -15.5t33.5 -11.5t48.5 -5h19v-75h-19q-26 0 -62 12t-59 39q-12 -20 -41 -35.5t-74 -15.5h-76v75h53q42 0 59 20t17 53v433z" />
    <glyph glyph-name="meemfinalarabic" unicode="&#x645;" horiz-adv-x="642" arabic-form="final" 
d="M238 14q-9 -1 -23.5 -5.5t-30.5 -12.5t-28.5 -20t-20.5 -28.5t-8 -37.5q0 -19 2 -41t5 -42.5t6 -38.5t6 -30q2 -8 -0.5 -15.5t-13.5 -10.5q-9 -3 -28 -6l-30 -5q-2 4 -6.5 23.5t-9 46.5t-8.5 59t-4 62q0 47 16.5 78.5t39.5 51t46 28.5t37 11q-10 11 -16.5 26.5t-11.5 38
t-5 52.5q0 44 15 81t43.5 63.5t69 41.5t92.5 15q26 0 54 -4.5t53 -10t51 -12.5v-265q1 -2 8 -7t19.5 -10.5t31.5 -10t45 -4.5h19v-75h-19q-11 0 -26 2.5t-30.5 8t-30.5 13.5t-27 19q-11 -31 -38.5 -49t-81.5 -18q-21 0 -44.5 3t-45.5 8t-41 12t-31 15zM452 313
q-14 5 -32.5 10t-46.5 5q-75 0 -108 -34t-33 -103q0 -35 12 -61.5t33.5 -44.5t50.5 -27t63 -9q26 0 43.5 12.5t17.5 45.5v206z" />
    <glyph glyph-name="meeminitialarabic" unicode="&#x645;" horiz-adv-x="500" arabic-form="initial" 
d="M283 389q26 0 53.5 -4.5t52.5 -10t52 -12.5v-249q0 -26 -5 -51t-19 -45t-39.5 -32.5t-66.5 -12.5q-18 0 -45.5 3.5t-55.5 10.5l-60 14h-170v75h97q-5 14 -11 45.5t-6 71.5q0 44 15.5 80.5t44.5 62.5t70 40t93 14zM364 302q-14 3 -33 6.5t-47 3.5q-38 0 -65 -11t-45 -28.5
t-26.5 -40.5t-8.5 -47q0 -26 2.5 -46.5t6.5 -36t9 -26.5q22 -7 43 -12l40 -10q20 -5 36 -7q42 -8 65 5.5t23 54.5v195z" />
    <glyph glyph-name="meemmedialarabic" unicode="&#x645;" horiz-adv-x="548" arabic-form="medial" 
d="M362 302q-14 3 -33.5 6.5t-47.5 3.5q-38 0 -65 -11t-45 -28.5t-26.5 -40.5t-8.5 -47q0 -26 2.5 -46.5t6.5 -36t9 -26.5q22 -7 42 -12l42 -10q20 -5 35 -7q42 -8 65.5 5.5t23.5 54.5v195zM308 -30q-18 0 -45 4.5t-55 10.5t-61 15h-168v75h96q-6 14 -12 45.5t-6 71.5
q0 44 15.5 80.5t44.5 62.5t70 40t93 14q26 0 54 -4.5t53 -10t51 -12.5v-255q1 -2 8 -7t19.5 -10.5t31.5 -10t45 -4.5h19v-75h-19q-11 0 -26 2.5t-30.5 8t-30.5 13.5t-27 19q-11 -31 -38.5 -52t-81.5 -21z" />
    <glyph glyph-name="noonfinalarabic" unicode="&#x646;" horiz-adv-x="724" arabic-form="final" 
d="M613 0q0 -36 -9.5 -75.5t-37.5 -72t-79 -54t-133 -21.5q-47 0 -100 10t-97.5 39t-74 80t-29.5 134q0 23 3 51t8 56.5t11.5 55.5t13.5 47q39 -11 51 -16q11 -4 14.5 -11t-0.5 -22q-3 -12 -7 -30t-7.5 -39.5t-5.5 -45t-2 -46.5q0 -64 23 -100t57.5 -54t74.5 -22.5t74 -4.5
q55 0 89.5 12t53 32t25 47.5t6.5 57.5v330q0 12 7 20t18 8h53v-259q2 -2 9 -7.5t19.5 -11t31 -9.5t44.5 -4h19v-75h-19q-21 0 -51 8t-53 27v-35zM284 369q0 21 14.5 35.5t35.5 14.5t35.5 -14.5t14.5 -35.5t-14.5 -35.5t-35.5 -14.5t-35.5 14.5t-14.5 35.5z" />
    <glyph glyph-name="nooninitialarabic" unicode="&#x646;" horiz-adv-x="293" arabic-form="initial" 
d="M142 497q0 21 14.5 35.5t35.5 14.5t35.5 -14.5t14.5 -35.5t-14.5 -35.5t-35.5 -14.5t-35.5 14.5t-14.5 35.5zM155 337q0 12 8.5 20t19.5 8h50v-209q0 -80 -46 -118t-138 -38h-69v75h66q51 0 80 24t29 71v167z" />
    <glyph glyph-name="noonmedialarabic" unicode="&#x646;" horiz-adv-x="297" arabic-form="medial" 
d="M94 497q0 21 14.5 35.5t35.5 14.5t35.5 -14.5t14.5 -35.5t-14.5 -35.5t-35.5 -14.5t-35.5 14.5t-14.5 35.5zM104 337q0 12 8 20t20 8h50v-259q9 -9 23 -15.5t34 -11t49 -4.5h19v-75h-19q-12 0 -28.5 2.5t-33 8.5t-32.5 15t-27 23q-12 -20 -41.5 -34.5t-72.5 -14.5h-73v75
h48q42 0 59 20.5t17 52.5v189z" />
    <glyph glyph-name="hehfinalarabic" unicode="&#x647;" horiz-adv-x="486" arabic-form="final" 
d="M498 75v-75h-51q-16 0 -29 5.5t-23.5 13t-17.5 15.5t-10 14q-6 -6 -16.5 -15.5t-27 -18t-39 -15t-51.5 -6.5q-31 0 -63 8t-58.5 31t-43.5 64.5t-17 108.5q0 41 10 76.5t32.5 62t58 41.5t87.5 15q35 0 68 -4t61 -9t54 -12v-261q0 -20 12.5 -29.5t29.5 -9.5h34zM344 319
q-26 7 -52.5 9t-43.5 2q-25 0 -46.5 -5t-37.5 -19.5t-25 -39t-9 -63.5q0 -73 29 -105t82 -32q28 0 47 6t32.5 14.5t23.5 19.5v213z" />
    <glyph glyph-name="hehinitialarabic" unicode="&#x647;" horiz-adv-x="635" arabic-form="initial" 
d="M292 408q73 0 128.5 -12.5t93 -41t56.5 -76t19 -116.5v-69q0 -16 -2.5 -32.5t-12 -30t-28.5 -22t-52 -8.5q-21 0 -43 2.5t-41 7.5t-33.5 12.5t-21.5 17.5q-13 -26 -42.5 -33t-63.5 -7h-269v75h132q-11 10 -19 25.5t-13 37.5t-5 52q0 51 16.5 87t42.5 54l-35 -10
q-12 -3 -19 2t-10 16l-11 39q22 6 51 11.5t60 9.5t62.5 6.5t59.5 2.5zM303 333q-29 1 -57 -5.5t-49.5 -24t-35 -46.5t-13.5 -73q0 -26 6.5 -46.5t17 -34.5t24 -21t26.5 -7h34q32 0 39.5 16t7.5 43v199zM517 173q0 74 -40 110.5t-104 47.5v-233q6 -6 28.5 -14.5t68.5 -8.5h47
v98z" />
    <glyph glyph-name="hehmedialarabic" unicode="&#x647;" horiz-adv-x="555" arabic-form="medial" 
d="M572 0h-146q11 -17 22 -46t11 -61q0 -27 -12 -50t-34 -39.5t-53.5 -25.5t-69.5 -9q-51 0 -87 11t-61 26t-42 36v158h-120v75h118v255q24 16 53.5 28t68 21t86.5 9q44 0 74 -11.5t48 -33t25.5 -52.5t7.5 -70v-36q0 -46 -12 -72.5t-29 -37.5h152v-75zM176 75h115
q16 0 33 6.5t30.5 19t22 29.5t8.5 38v61q0 28 -6 44.5t-17.5 25t-27 11t-34.5 2.5q-29 0 -52 -4.5t-40.5 -10t-31.5 -13.5v-209zM285 -156q102 0 102 67q0 22 -5 37.5t-12 26t-14 16.5l-12 9h-166v-119q8 -11 22 -18.5t34.5 -13t50.5 -5.5z" />
    <glyph glyph-name="wawfinalarabic" unicode="&#x648;" horiz-adv-x="506" arabic-form="final" 
d="M518 0h-82v-9q0 -65 -12 -107t-36 -67t-59 -34.5t-80 -9.5q-18 0 -42.5 3.5t-44.5 8.5q-12 3 -22.5 9.5t-6.5 20.5l11 48q15 -4 31.5 -7.5t35 -6t37.5 -2.5q45 0 68.5 14.5t33 36.5t10.5 49t1 53h-113q-28 0 -60 7t-60.5 26.5t-48.5 56t-20 97.5q0 49 15.5 87.5t44.5 64
t69.5 38t88.5 12.5q32 0 60.5 -4.5t52.5 -10t46 -12.5v-287h82v-75zM358 309q-43 11 -75 11q-26 1 -51.5 -5t-46.5 -20.5t-33 -40t-12 -62.5q0 -61 32 -89t82 -28h104v234z" />
    <glyph glyph-name="alefmaksurafinalarabic" unicode="&#x649;" horiz-adv-x="716" arabic-form="final" 
d="M467 -164q17 0 37 5t36.5 16t27.5 27t11 39q0 26 -12.5 47.5t-33 39t-46.5 30.5t-53 22q1 4 17 50q3 11 10.5 19t24.5 1l40 -18q21 -9 45 -18t52 -15t61 -6h54v-75h-103q6 -9 10 -20.5t7.5 -27.5t3.5 -39q0 -17 -8.5 -43t-31.5 -50t-62.5 -41t-100.5 -17h-149
q-48 0 -92.5 11.5t-78 39t-53.5 74t-20 116.5q0 23 3.5 48t8.5 49t12 45l11 38l44 -11q10 -3 13.5 -9.5t0.5 -19.5l-12 -53q-8 -37 -8 -87q0 -55 18 -88t46 -50.5t62 -23t66 -5.5h142z" />
    <glyph glyph-name="yehfinalarabic" unicode="&#x64a;" horiz-adv-x="716" arabic-form="final" 
d="M467 -164q17 0 37 5t36.5 16t27.5 27t11 39q0 26 -12.5 47.5t-33 39t-46.5 30.5t-53 22q1 4 17 50q3 11 10.5 19t24.5 1l40 -18q21 -9 45 -18t52 -15t61 -6h54v-75h-103q6 -9 10 -20.5t7.5 -27.5t3.5 -39q0 -17 -8.5 -43t-31.5 -50t-62.5 -41t-100.5 -17h-149
q-48 0 -92.5 11.5t-78 39t-53.5 74t-20 116.5q0 23 3.5 48t8.5 49t12 45l11 38l44 -11q10 -3 13.5 -9.5t0.5 -19.5l-12 -53q-8 -37 -8 -87q0 -55 18 -88t46 -50.5t62 -23t66 -5.5h142zM253 -347q0 21 14.5 35.5t35.5 14.5t35.5 -14.5t14.5 -35.5t-14.5 -35.5t-35.5 -14.5
t-35.5 14.5t-14.5 35.5zM381 -347q0 21 14.5 35.5t35.5 14.5t35.5 -14.5t14.5 -35.5t-14.5 -35.5t-35.5 -14.5t-35.5 14.5t-14.5 35.5z" />
    <glyph glyph-name="yehinitialarabic" unicode="&#x64a;" horiz-adv-x="289" arabic-form="initial" 
d="M155 337q0 12 8.5 20t19.5 8h50v-209q0 -80 -46 -118t-138 -38h-69v75h66q51 0 80 24t29 71v167zM9 -109q0 21 14.5 35.5t35.5 14.5t35.5 -14.5t14.5 -35.5t-14.5 -35.5t-35.5 -14.5t-35.5 14.5t-14.5 35.5zM137 -109q0 21 14.5 35.5t35.5 14.5t35.5 -14.5t14.5 -35.5
t-14.5 -35.5t-35.5 -14.5t-35.5 14.5t-14.5 35.5z" />
    <glyph glyph-name="yehmedialarabic" unicode="&#x64a;" horiz-adv-x="297" arabic-form="medial" 
d="M31 -109q0 21 14.5 35.5t35.5 14.5t35.5 -14.5t14.5 -35.5t-14.5 -35.5t-35.5 -14.5t-35.5 14.5t-14.5 35.5zM159 -109q0 21 14.5 35.5t35.5 14.5t35.5 -14.5t14.5 -35.5t-14.5 -35.5t-35.5 -14.5t-35.5 14.5t-14.5 35.5zM104 337q0 12 8 20t20 8h50v-259q9 -9 23 -15.5
t34 -11t49 -4.5h19v-75h-19q-12 0 -28.5 2.5t-33 8.5t-32.5 15t-27 23q-12 -20 -41.5 -34.5t-72.5 -14.5h-73v75h48q42 0 59 20.5t17 52.5v189z" />
    <glyph glyph-name=".notdef" horiz-adv-x="500" 
d="M63 0h375v750h-375v-750zM125 63v625h250v-625h-250z" />
    <glyph glyph-name=".null" 
 />
    <glyph glyph-name="nonmarkingreturn" horiz-adv-x="333" 
 />
    <glyph glyph-name="space" unicode=" " horiz-adv-x="208" 
 />
    <glyph glyph-name="exclam" unicode="!" horiz-adv-x="219" 
d="M153 175q0 -12 -7 -20t-18 -8h-53v434q0 12 7.5 20t18.5 8h52v-434zM62 51q0 21 14.5 35.5t35.5 14.5t35.5 -14.5t14.5 -35.5q0 -22 -14.5 -36.5t-35.5 -14.5t-35.5 14.5t-14.5 36.5z" />
    <glyph glyph-name="quotedbl" unicode="&#x22;" horiz-adv-x="305" 
d="M233 440q1 -14 -8.5 -23t-20.5 -9h-29q-2 51 -4 96.5t-4 96.5q0 14 8.5 23t22.5 9h43zM114 440q1 -14 -8.5 -23t-20.5 -9h-29q-2 51 -4 96.5t-4 96.5q0 14 8.5 23t22.5 9h43z" />
    <glyph glyph-name="percent" unicode="%" horiz-adv-x="568" 
d="M430 625q-4 -6 -48 -76.5t-319 -508.5l44 -27q6 -4 11.5 -5t12.5 1.5t13 12.5q3 4 371 592l-35 22q-9 5 -17.5 6t-17 -2.5t-15.5 -14.5zM423 22q-31 0 -50.5 8t-31 23t-15.5 36t-4 46t4 46t15.5 36t31 23.5t50.5 8.5t50.5 -8.5t30.5 -23.5t15.5 -36t4.5 -46t-4.5 -46
t-15.5 -36t-30.5 -23t-50.5 -8zM423 199q-35 0 -42.5 -18t-7.5 -46q0 -14 1 -25.5t6 -19.5t15 -13t28 -5t27.5 5t14.5 13t6 19.5t1 25.5t-1 25.5t-6 20t-14.5 13.5t-27.5 5zM151 441q-31 0 -50.5 8t-31 23t-16 36t-4.5 46t4.5 46t16 36t31 23t50.5 8t50.5 -8t31 -23
t15.5 -36t4 -46t-4 -46t-15.5 -36t-31 -23t-50.5 -8zM151 618q-35 0 -42.5 -18t-7.5 -46q0 -14 1 -25.5t6 -19.5t15 -13t28 -5q17 0 27 5t15 13t6.5 19.5t1.5 25.5q0 28 -8 46t-42 18z" />
    <glyph glyph-name="ampersand" unicode="&#x26;" horiz-adv-x="633" 
d="M562 349q-3 -32 -10 -65t-16.5 -63.5t-21 -57t-23.5 -45.5l55 -60q20 -23 23 -26q9 -10 9 -16t-3 -9.5t-7.5 -5t-5.5 -1.5h-62l-27 30l-32 37q-27 -31 -74.5 -55t-118.5 -24q-105 0 -156 49t-51 140q0 39 11 68t29.5 51.5t42.5 40t50 32.5q-14 17 -28.5 38t-26 43t-19 45
t-7.5 44q0 72 42.5 112.5t133.5 40.5q59 0 97 -10.5t54 -18.5v-37q0 -10 -3 -13.5t-7 -4t-9 1.5t-8 3q-24 9 -54 16t-62 7q-29 0 -49.5 -7.5t-33.5 -20.5t-19 -31t-6 -38q0 -15 7 -34t17.5 -38.5t22.5 -36.5t23 -28l206 -235q21 47 35 101t14 113h42q14 0 20 -9t6 -23z
M216 325q-50 -27 -75 -60.5t-25 -84.5q0 -62 35.5 -99.5t98.5 -37.5q53 0 90.5 20.5t57.5 47.5z" />
    <glyph glyph-name="quotesingle" unicode="'" horiz-adv-x="172" 
d="M111 440q1 -14 -8.5 -23t-20.5 -9h-29q-2 51 -4 96.5t-4 96.5q0 14 8.5 23t22.5 9h43z" />
    <glyph glyph-name="parenleft" unicode="(" horiz-adv-x="300" 
d="M237 662l-37 -72q-17 -34 -30 -70.5t-20.5 -79.5t-7.5 -98q0 -48 9 -93.5t23 -87t31 -77t33 -63.5q5 -8 -1 -14.5t-16 -6.5h-49q-1 0 -18 28.5t-37 75t-36.5 107t-16.5 123.5q0 76 17 139.5t37 109.5t38 72q16 25 17 26h51q8 0 13 -5t0 -14z" />
    <glyph glyph-name="parenright" unicode=")" horiz-adv-x="300" 
d="M64 662q-5 9 0 14t13 5h51q35 -52 55 -98t37 -109.5t17 -139.5q0 -63 -16.5 -123.5t-36.5 -107t-55 -103.5h-49q-10 0 -16 6.5t-1 14.5q16 28 33 63.5t31 77t23 87t9 93.5q0 55 -7.5 98t-20.5 79.5t-31 70.5z" />
    <glyph glyph-name="comma" unicode="," horiz-adv-x="199" 
d="M97 104q26 0 43 -18t17 -46q0 -19 -6 -38.5t-14.5 -37.5t-17 -33.5t-13.5 -25.5l-39 13q-20 8 -10 32l18 41q-16 7 -26.5 21t-10.5 34q0 25 17 41.5t42 16.5z" />
    <glyph glyph-name="hyphen" unicode="-" horiz-adv-x="373" 
d="M68 212q-12 0 -20 7t-8 17v53h262q12 0 19.5 -7t7.5 -19v-51h-261z" />
    <glyph glyph-name="period" unicode="." horiz-adv-x="184" 
d="M47 51q0 21 14.5 35.5t35.5 14.5q22 0 36.5 -14.5t14.5 -35.5q0 -22 -14.5 -36.5t-36.5 -14.5q-21 0 -35.5 14.5t-14.5 36.5z" />
    <glyph glyph-name="slash" unicode="/" horiz-adv-x="395" 
d="M109 -61h-62q-12 0 -19 8t0 25l256 692h62q12 0 18 -7.5t1 -25.5z" />
    <glyph glyph-name="zero" unicode="0" horiz-adv-x="542" 
d="M273 -6q-75 0 -119.5 27.5t-68.5 74.5t-31 110.5t-7 134.5t9.5 131.5t35 104.5t69 69t112.5 25q73 0 117.5 -25t68.5 -69t32 -104.5t8 -131.5t-4.5 -134.5t-26.5 -110.5t-67.5 -74.5t-127.5 -27.5zM273 605q-48 0 -77.5 -17t-45 -50.5t-20.5 -83t-5 -113.5
q0 -70 5 -121.5t20.5 -85t45 -50t77.5 -16.5t77.5 15.5t45 48.5t21 85t5.5 124q0 63 -5.5 112.5t-21 83t-45 51t-77.5 17.5z" />
    <glyph glyph-name="one" unicode="1" horiz-adv-x="309" 
d="M207 666q24 0 24 -27v-616q0 -11 -2.5 -17t-16.5 -6h-58v592h-85q-11 0 -16 5t-5 21v48h159z" />
    <glyph glyph-name="two" unicode="2" horiz-adv-x="513" 
d="M74 625q29 12 61 23q27 8 61.5 15.5t69.5 7.5q54 0 91.5 -11.5t61 -32.5t34 -49.5t10.5 -62.5q0 -32 -12 -61.5t-34.5 -60.5t-53.5 -65l-70 -75l-67 -74l-51 -56q-25 -27 -43 -49h325q9 0 15.5 -2.5t6.5 -16.5v-55h-367q-25 0 -41 12.5t-21.5 31.5t-0.5 40.5t22 38.5
l38 39l45 48l48 52l47 49q63 64 102.5 112t39.5 89q0 48 -29 70.5t-101 22.5q-47 0 -82 -11.5t-58 -21.5q-12 -6 -17 -5t-9 11z" />
    <glyph glyph-name="three" unicode="3" horiz-adv-x="484" 
d="M352 350q24 -6 41.5 -17t29 -29.5t17 -46.5t5.5 -67q0 -40 -7 -74.5t-29.5 -60t-65 -40.5t-112.5 -15q-32 0 -66 5.5t-62 13.5q-33 9 -63 20l18 54q4 16 23 9q17 -6 57.5 -17t91.5 -11q33 0 58 4.5t41.5 17.5t25 36t8.5 60q0 28 -4 50t-15 37t-32 22.5t-54 7.5h-137v55
q0 13 7.5 17.5t18.5 4.5h85q35 0 57.5 5t36 18.5t19 36.5t5.5 58q0 58 -34 79.5t-90 21.5q-41 0 -76 -10l-62 -17q-12 -3 -17.5 -2t-8.5 11l-11 51q24 9 52 16q24 6 55.5 11.5t68.5 5.5q66 0 106 -15t61 -39t28 -54.5t7 -61.5q0 -24 -3 -47.5t-11 -44t-23.5 -36.5t-39.5 -23
z" />
    <glyph glyph-name="four" unicode="4" horiz-adv-x="517" 
d="M463 244q15 0 20 -7t5 -17v-50h-80v-156q-1 -13 -7.5 -17.5t-16.5 -4.5h-54v178h-242q-12 0 -27 7.5t-25 22t-11 37t13 41.5l238 342q19 25 38.5 38t46 9.5t37 -20t10.5 -42.5v-361h55zM330 581l-229 -338h229v338z" />
    <glyph glyph-name="five" unicode="5" horiz-adv-x="501" 
d="M448 618q0 -10 -3 -17t-18 -7h-237l-55 -206h129q48 0 84 -9t60 -31t36 -58.5t12 -90.5q0 -51 -15 -90t-42.5 -65t-65.5 -39t-83 -13q-41 0 -76 7t-61 16q-31 11 -56 24l19 54q3 10 10 10t14 -3q4 -2 16.5 -7t31.5 -10.5t42.5 -10t49.5 -4.5q50 0 78.5 12t42.5 31
t17.5 42t3.5 46q0 34 -8 57t-23 36.5t-35.5 19t-44.5 5.5h-160q-36 0 -47.5 20t-7.5 42l60 222q6 25 17 38t23.5 19t25 7t23.5 1h243v-48z" />
    <glyph glyph-name="six" unicode="6" horiz-adv-x="517" 
d="M276 403q39 0 75.5 -5.5t64.5 -26t45 -60.5t17 -108q0 -45 -11.5 -84t-36.5 -67t-65 -44t-97 -16q-61 0 -102.5 20.5t-66.5 53t-35.5 73.5t-10.5 83v226q0 63 22.5 106t59 69t82 37t91.5 11q29 0 52 -3t39.5 -7t28.5 -9q-13 -39 -15 -47q-6 -16 -25 -10q-8 2 -30.5 5
t-51.5 5q-86 0 -131 -38t-45 -107v-90q23 9 46.5 15.5t49.5 12t50 5.5zM268 67q47 0 74.5 12t41 31.5t17 44t3.5 48.5q0 31 -6 55.5t-20.5 40.5t-39 24.5t-62.5 8.5q-33 0 -60 -4.5t-47.5 -10t-37.5 -12.5v-79q0 -41 6 -70.5t22 -49.5t42 -29.5t67 -9.5z" />
    <glyph glyph-name="seven" unicode="7" horiz-adv-x="457" 
d="M351 666q60 0 74 -31.5t-9 -91.5l-258 -543h-63q-11 0 -13.5 7.5t-0.5 15.5q1 1 274 569h-308q-16 0 -19.5 5t-3.5 19v50h327z" />
    <glyph glyph-name="eight" unicode="8" horiz-adv-x="520" 
d="M386 357q32 -13 52.5 -32t32.5 -41.5t16.5 -48t4.5 -51.5q0 -38 -13 -72.5t-40.5 -61t-72 -42.5t-107.5 -16q-56 0 -98.5 14.5t-71 40.5t-43 61.5t-14.5 78.5q0 60 29 104t89 66q-22 11 -40 30q-15 17 -27.5 44t-12.5 68q0 47 15 80t41 53.5t61 29.5t75 9q94 0 145 -42
t51 -125q0 -42 -17 -81.5t-55 -65.5zM262 602q-60 0 -89 -25t-29 -70q0 -38 17.5 -62.5t39.5 -38.5q26 -17 58 -26q34 6 60 22q23 14 42 39t19 67q0 45 -27.5 69.5t-90.5 24.5zM259 67q33 0 61 7.5t48.5 23.5t32.5 40t12 56q0 51 -41 85t-113 46q-25 -7 -51 -17.5t-47 -25.5
t-34 -36.5t-13 -51.5q0 -37 14.5 -61.5t36 -39t47 -20.5t47.5 -6z" />
    <glyph glyph-name="nine" unicode="9" horiz-adv-x="491" 
d="M246 245q-41 0 -78.5 9.5t-66.5 32t-46.5 61t-17.5 97.5q0 53 15 95t42 71t63.5 44.5t80.5 15.5q72 0 114 -20t64 -59t28.5 -97t6.5 -134v-73q0 -41 -3 -82t-15 -79.5t-38 -68.5t-69 -48t-109 -18q-23 0 -46 3.5t-42.5 8.5t-38.5 13q2 8 5.5 24.5t5.5 24.5q4 14 11.5 16
t16.5 0l13 -4l22.5 -4.5t27 -4.5t28.5 -2q43 0 70 10t43.5 25.5t25 34t13.5 35.5t7 36t2.5 37t-0.5 37q-15 -11 -33.5 -18.5t-43.5 -13t-58 -5.5zM242 605q-69 0 -98.5 -38t-29.5 -110q0 -24 2.5 -49.5t15.5 -46t39 -33.5t73 -13q32 0 57 5t43 11.5t33 15.5v117q0 27 -6 52
t-21 45t-41.5 32t-66.5 12z" />
    <glyph glyph-name="colon" unicode=":" horiz-adv-x="194" 
d="M49 51q0 21 14.5 35.5t35.5 14.5q22 0 36.5 -14.5t14.5 -35.5q0 -22 -14.5 -36.5t-36.5 -14.5q-21 0 -35.5 14.5t-14.5 36.5zM49 386q0 21 14.5 35.5t35.5 14.5q22 0 36.5 -14.5t14.5 -35.5t-14.5 -35.5t-36.5 -14.5q-21 0 -35.5 14.5t-14.5 35.5z" />
    <glyph glyph-name="semicolon" unicode=";" horiz-adv-x="184" 
d="M142 62q6 -18 3.5 -38t-8.5 -40.5t-15 -40.5t-18 -38l-36 11q-10 4 -13 10.5t2 21.5q5 14 8 23.5t8 28.5q-14 7 -21.5 19t-7.5 27q0 21 14.5 35.5t35.5 14.5q18 0 30.5 -9.5t17.5 -24.5zM44 386q0 21 14.5 35.5t35.5 14.5q22 0 36.5 -14.5t14.5 -35.5t-14.5 -35.5
t-36.5 -14.5q-21 0 -35.5 14.5t-14.5 35.5z" />
    <glyph glyph-name="A" unicode="A" horiz-adv-x="629" 
d="M595 22q3 -8 0 -15t-17 -7h-61l-61 170h-279l-61 -170h-64q-14 0 -15.5 7t1.5 15l230 610q5 15 10 24t15 15.5t23 6.5t22.5 -6.5t15.5 -15.5t11 -24zM428 246l-112 320l-112 -320h224z" />
    <glyph glyph-name="B" unicode="B" horiz-adv-x="585" 
d="M398 352q35 -10 59.5 -27.5t39.5 -39t21.5 -46t6.5 -48.5q0 -29 -7 -62.5t-28.5 -62t-60 -47.5t-100.5 -19h-200q-33 0 -54 17t-21 59v558q24 12 71 28t120 16q48 0 90 -11t71.5 -33.5t46.5 -57t17 -80.5q0 -15 -4 -33.5t-12 -38t-21.5 -38.5t-34.5 -34zM129 381h124
q37 0 63 9.5t42.5 25.5t24.5 36.5t8 42.5q0 51 -33 82.5t-106 31.5q-27 0 -49 -3t-39 -6l-35 -8v-211zM320 75q42 0 66.5 11t37.5 28t17 36.5t4 37.5q0 22 -8 43t-25 37.5t-44 26.5t-65 10h-174v-230h191z" />
    <glyph glyph-name="C" unicode="C" horiz-adv-x="566" 
d="M329 601q-51 0 -87 -20t-60 -53t-35 -80t-11 -106q0 -134 51.5 -204.5t163.5 -70.5q34 0 57.5 3.5t40.5 8.5t30 10.5t27 8.5q21 5 21 -17v-53q-18 -11 -44 -19q-23 -7 -57.5 -12.5t-85.5 -5.5q-82 0 -135 26.5t-86.5 74t-46.5 109.5t-13 133q0 69 13 131t46.5 109.5
t86.5 74t135 26.5q48 0 83 -5.5t60 -12.5t44 -16v-61q0 -19 -19 -13q-23 8 -64.5 21t-114.5 13z" />
    <glyph glyph-name="D" unicode="D" horiz-adv-x="619" 
d="M276 666q88 0 144 -24t87.5 -67.5t43 -105t11.5 -135.5q0 -88 -15 -151.5t-49 -104t-88.5 -59.5t-133.5 -19h-144q-23 0 -37.5 6.5t-22.5 17.5t-11 24t-3 27v518q0 22 6 36.5t16.5 22.5t24 11t27.5 3h144zM280 75q64 0 103.5 19.5t61.5 54t29.5 82t7.5 103.5
q0 55 -7.5 102.5t-29.5 82t-61.5 54.5t-103.5 20h-148v-518h148z" />
    <glyph glyph-name="E" unicode="E" horiz-adv-x="515" 
d="M122 593v-205h254v-50q0 -25 -25 -25h-229v-238h353v-48q0 -27 -28 -27h-312q-40 0 -64.5 20t-24.5 55v503q0 35 9.5 53t24.5 26t32.5 8.5t32.5 0.5h330v-53q0 -20 -22 -20h-331z" />
    <glyph glyph-name="F" unicode="F" horiz-adv-x="505" 
d="M126 593v-205h243v-56q0 -13 -6 -16t-17 -3h-220v-291q0 -13 -6 -17.5t-17 -4.5h-54v558q0 47 9.5 68t30 30.5t75.5 9.5h306v-51q0 -11 -4 -16.5t-18 -5.5h-322z" />
    <glyph glyph-name="G" unicode="G" horiz-adv-x="612" 
d="M508 370q21 0 33 -8.5t12 -37.5v-295q-23 -11 -54 -19t-73 -13.5t-100 -5.5q-27 0 -58 5t-61.5 18.5t-58.5 37.5t-49.5 62.5t-34.5 92t-13 127.5q0 73 13 127t34.5 92t50 61.5t59 37t61.5 18.5t58 5q51 0 90 -6t67.5 -14t49.5 -18v-55q0 -10 -5 -14.5t-22 3.5
q-8 4 -27 10t-44 11t-53.5 9t-55.5 4q-58 0 -96.5 -22t-61.5 -59.5t-32.5 -86.5t-9.5 -103q0 -131 55 -198.5t171 -67.5q40 0 70.5 3.5t55.5 14.5v210h-130q-15 0 -19 7t-4 18v49h182z" />
    <glyph glyph-name="H" unicode="H" horiz-adv-x="578" 
d="M540 666v-644q0 -9 -4 -15.5t-18 -6.5h-55v313h-334v-291q0 -13 -6 -17.5t-15 -4.5h-54v640q0 11 4 18.5t18 7.5h53v-278h334v257q0 10 5 15.5t14 5.5h58z" />
    <glyph glyph-name="I" unicode="I" horiz-adv-x="210" 
d="M151 0h-79v645q0 13 5.5 17t14.5 4h59v-666z" />
    <glyph glyph-name="J" unicode="J" horiz-adv-x="307" 
d="M261 666v-539q0 -61 -32.5 -90t-66 -37.5t-78.5 -8.5q-16 0 -35 1.5t-39 6.5v56q0 11 5.5 15t13.5 3q13 -2 28.5 -2.5t26.5 -0.5q47 0 73 11t26 51v513q0 11 6 16t16 5h56z" />
    <glyph glyph-name="K" unicode="K" horiz-adv-x="566" 
d="M152 0h-76v645q0 12 5.5 16.5t15.5 4.5h55v-666zM460 0l-278 286q-14 13 -21.5 23.5t-7.5 27.5q0 16 8 28.5t23 29.5l237 271h59q13 0 15 -7t-5 -17l-256 -305l303 -315q8 -8 7 -15t-17 -7h-67z" />
    <glyph glyph-name="L" unicode="L" horiz-adv-x="493" 
d="M464 75v-53q0 -8 -3.5 -15t-17.5 -7h-240q-40 0 -68 11t-46 30t-26.5 45.5t-8.5 58.5v500q0 21 19 21h57v-500q0 -50 21.5 -70.5t65.5 -20.5h247z" />
    <glyph glyph-name="M" unicode="M" horiz-adv-x="789" 
d="M632 640q10 16 27.5 22.5t34.5 2.5t30 -18.5t13 -40.5v-584q0 -11 -4 -16.5t-18 -5.5h-52v548l-214 -305q-20 -27 -48.5 -27t-48.5 27l-214 305v-528q0 -6 -2.5 -13t-19.5 -7h-52v605q0 27 12.5 42t30 18.5t34.5 -3t27 -22.5l232 -341z" />
    <glyph glyph-name="N" unicode="N" horiz-adv-x="640" 
d="M585 666v-602q0 -27 -11.5 -42.5t-27.5 -19.5t-34.5 4t-31.5 28l-330 508v-514q0 -20 -8 -24t-16 -4h-52v607q0 23 11 38t27.5 19.5t34.5 -3t32 -28.5l332 -513v525q0 9 4.5 15t12.5 6h57z" />
    <glyph glyph-name="O" unicode="O" horiz-adv-x="655" 
d="M328 676q90 0 144.5 -29.5t83.5 -78.5t38 -109.5t9 -124.5q0 -66 -9 -126.5t-38 -109.5t-83.5 -78t-144.5 -29t-144 29t-83.5 78t-38.5 109.5t-9 126.5q0 64 9 124.5t38.5 109.5t84 78.5t143.5 29.5zM328 609q-65 0 -102 -21t-57.5 -58t-28 -87t-7.5 -109
q0 -60 7.5 -110.5t28 -87.5t57.5 -58t102 -21q64 0 102 21t58.5 58t27 87.5t6.5 110.5q0 59 -6.5 109t-27 87t-58.5 58t-102 21z" />
    <glyph glyph-name="P" unicode="P" horiz-adv-x="585" 
d="M289 678q60 0 106 -16.5t77 -46.5t46.5 -72.5t15.5 -94.5q0 -51 -11.5 -99.5t-38.5 -82t-74 -56t-122 -22.5q-29 0 -61 4t-54 10.5t-35 11.5v-214h-76v619q29 16 61.5 28t74 21.5t91.5 9.5zM297 264q62 1 92.5 21.5t46.5 48.5t19 59.5t3 54.5q0 29 -7.5 57t-26 50
t-49.5 35.5t-77 13.5q-43 0 -72.5 -5t-51 -11.5t-36.5 -14.5v-278q13 -8 35 -15t54 -11.5t70 -4.5z" />
    <glyph glyph-name="Q" unicode="Q" horiz-adv-x="658" 
d="M333 675q88 0 143 -26.5t84 -73.5t38.5 -108.5t9.5 -132.5q0 -58 -7 -110t-25 -94t-48 -72.5t-74 -45.5l133 -23v-52q0 -8 -5 -13.5t-20 -2.5q-4 0 -20 4l-39 9l-51 13l-57 15l-152 39q-60 15 -96.5 48t-56 77.5t-25.5 98t-6 109.5q0 71 10 132.5t39 108.5t83 73.5
t142 26.5zM333 609q-64 0 -101.5 -21t-58 -57.5t-27 -87t-6.5 -109.5t6.5 -109.5t27 -87.5t58 -57.5t101.5 -20.5q65 0 102.5 20.5t57.5 57.5t27 87.5t7 109.5t-7 109.5t-27 87t-57.5 57.5t-102.5 21z" />
    <glyph glyph-name="R" unicode="R" horiz-adv-x="599" 
d="M571 22q7 -12 1.5 -17t-14.5 -5h-71l-190 265h-161v-265h-75v627q30 14 62.5 24.5t72.5 18.5t84 8q121 0 182.5 -53.5t61.5 -158.5q0 -66 -33.5 -115.5t-105.5 -73.5q184 -253 186 -255zM305 335q24 0 49 7.5t45.5 24.5t33.5 44t13 67q0 39 -13 64.5t-37.5 40t-59 20.5
t-77.5 6q-26 0 -48 -3.5t-39 -8.5t-36 -12v-250h169z" />
    <glyph glyph-name="S" unicode="S" horiz-adv-x="576" 
d="M502 585q0 -9 -6 -13t-16 -1q-16 3 -34.5 8t-43 10.5t-54 10t-60.5 4.5q-52 0 -83 -8t-47.5 -22.5t-21.5 -35t-5 -45.5q0 -38 15.5 -58.5t39.5 -30.5t52.5 -13.5t48.5 -5.5l44 -5q24 -2 50.5 -8.5t54 -18t49.5 -32t36 -51.5t14 -75q0 -42 -11.5 -79t-40.5 -64.5
t-78 -43.5t-124 -16q-25 0 -55.5 3t-60 8t-56 11t-46.5 14v55q0 10 6 14t15 1l26 -8q18 -6 42.5 -11.5t55 -9t63.5 -3.5q100 0 143 31t43 93q0 45 -24 69.5t-56.5 36t-66.5 14.5t-61 6t-62.5 11t-64.5 26.5t-48.5 50.5t-19.5 84q0 56 19 92.5t50 57.5t73.5 29t89.5 8
q48 0 87.5 -6t70.5 -14.5t58 -19.5v-50z" />
    <glyph glyph-name="T" unicode="T" horiz-adv-x="527" 
d="M501 666v-50q0 -13 -6.5 -18.5t-18.5 -5.5h-175v-592h-77v592h-199v54q0 9 6.5 14.5t18.5 5.5h451z" />
    <glyph glyph-name="U" unicode="U" horiz-adv-x="625" 
d="M570 666v-610q-27 -18 -60.5 -31t-79 -23t-84 -10t-60.5 1.5t-46 6t-48 11.5t-54.5 24.5t-59 61t-28.5 115.5v429q0 14 6.5 19.5t19.5 5.5h51v-445q0 -43 14 -70.5t36 -44.5t49 -24.5t51.5 -10t64 -2t65.5 5t47.5 11t39.5 14.5v538q0 17 5 22.5t18 5.5h53z" />
    <glyph glyph-name="V" unicode="V" horiz-adv-x="603" 
d="M557 666q12 0 17.5 -7.5t0.5 -25.5l-217 -577q-11 -29 -23 -45.5t-35 -16.5t-34.5 16.5t-22.5 45.5l-218 581q-5 12 0 20.5t23 8.5h45l207 -552l209 552h48z" />
    <glyph glyph-name="W" unicode="W" horiz-adv-x="855" 
d="M808 666q11 0 16 -5.5t0 -25.5l-134 -579q-7 -28 -19.5 -45t-41.5 -17q-20 0 -35.5 17t-25.5 45l-146 362l-132 -362q-10 -28 -23 -45t-37 -17q-25 0 -39.5 17t-20.5 45l-134 579q-4 12 0.5 21.5t22.5 9.5h46l129 -558l179 492h48q9 0 15.5 -6t4.5 -16l-23 -62l166 -417
l131 567h53z" />
    <glyph glyph-name="X" unicode="X" horiz-adv-x="597" 
d="M330 423l152 243h68q14 0 15 -7t-2 -13l-191 -312l194 -307q10 -15 6.5 -21t-15.5 -6h-71l-149 242l-23 36q-12 19 -18 38q-6 -20 -17 -38l-22 -36l-145 -242h-72q-12 0 -15.5 6.5t6.5 20.5l191 307l-190 312q-4 6 -2.5 13t14.5 7h69l148 -242q3 -6 15 -24t20 -36
q7 19 18 36z" />
    <glyph glyph-name="Y" unicode="Y" horiz-adv-x="634" 
d="M592 666q9 0 13.5 -6.5t0.5 -16.5l-251 -368v-252q0 -9 -3 -16t-17 -7h-55v275l-250 368q-4 9 0.5 16t13.5 7h57l217 -312l215 312h59z" />
    <glyph glyph-name="Z" unicode="Z" horiz-adv-x="580" 
d="M545 75v-52q0 -8 -3.5 -15.5t-18.5 -7.5h-426q-19 0 -39 14.5t-20.5 41t12.5 41.5l391 495h-367q-17 0 -24 7t-7 17v50h429q31 0 48 -14t20.5 -38t-20.5 -53l-382 -486h407z" />
    <glyph glyph-name="a" unicode="a" horiz-adv-x="466" 
d="M220 444q38 0 71.5 -7t59 -23.5t40.5 -44.5t15 -70v-267q-21 -13 -47 -22.5t-60.5 -16.5t-79.5 -7q-42 0 -72.5 7.5t-56 24t-41.5 45t-16 67.5q0 53 41.5 83.5t111 39t99.5 11.5t46 5v40q0 10 -5.5 21t-18.5 20t-34.5 14.5t-52.5 5.5q-39 0 -72.5 -6.5t-55.5 -12.5
q-22 -7 -22 13v56q20 7 41.5 12t47.5 8.5t61 3.5zM330 193q-15 -1 -31.5 -2.5t-36.5 -3.5l-57 -5q-37 -4 -67 -16t-30 -41t29.5 -47t80.5 -18q43 0 69 4.5t43 12.5v116z" />
    <glyph glyph-name="b" unicode="b" horiz-adv-x="494" 
d="M97 664q14 0 23 -7.5t9 -24.5v-218q38 13 66 17.5t60 4.5q58 0 96 -17.5t55.5 -41.5t25 -39t12.5 -32.5t7 -39t2 -48.5q0 -47 -9 -87.5t-26 -63.5t-34.5 -35.5t-38.5 -21t-44.5 -13t-45.5 -4.5q-45 0 -82.5 7t-67 16.5t-54.5 22.5v625h46zM129 75q26 -10 55 -14.5
t54 -4.5q42 0 73 14t44 36.5t17 51t4 60.5q0 48 -10.5 78.5t-27.5 48t-39 23.5t-44 6q-45 0 -72.5 -6.5t-53.5 -19.5v-273z" />
    <glyph glyph-name="c" unicode="c" horiz-adv-x="448" 
d="M368 75q22 5 26 -16l8 -43q-19 -7 -40.5 -12t-48 -8t-57.5 -3q-60 0 -100 17.5t-63 49t-32 68t-9 82.5q0 48 9 88.5t32 72t64 49t99 17.5q35 0 73.5 -5t72.5 -18v-46q0 -19 -21 -16q-1 0 -13 3.5t-30 7t-40 5.5t-43 2q-43 -1 -67.5 -16.5t-37.5 -38t-17 -48t-4 -57.5
q0 -31 4 -53.5t17 -45t37.5 -36t67.5 -13.5q21 0 40.5 2t35.5 4.5t26 4.5t11 2z" />
    <glyph glyph-name="d" unicode="d" horiz-adv-x="503" 
d="M416 664q18 0 24.5 -7t6.5 -25v-593q-24 -13 -53 -23q-25 -9 -59 -16t-76 -7q-58 0 -104 17t-69 48.5t-32 73t-9 88.5q0 23 5 60t25 71.5t59.5 59.5t108.5 25q32 0 64.5 -5t61.5 -16v249h47zM369 348q-13 6 -25 11t-25.5 8.5t-30.5 5t-39 1.5q-21 0 -43 -6.5t-41 -23
t-31 -46.5t-12 -78q0 -35 5.5 -65t20.5 -52t42.5 -34.5t71.5 -12.5t68.5 7t38.5 12v273z" />
    <glyph glyph-name="e" unicode="e" horiz-adv-x="462" 
d="M419 292q0 -35 -10.5 -58.5t-30 -38.5t-46.5 -21.5t-59 -6.5h-154q5 -58 44 -81.5t92 -23.5q22 0 38 2t28 4.5t21 5t17 5.5q9 3 17 0.5t8 -14.5v-45q-18 -8 -37.5 -13.5t-44 -9.5t-50.5 -4q-29 0 -65.5 7.5t-69 29.5t-55 62.5t-22.5 107.5q0 81 23 129t55.5 73.5
t67.5 33.5t60 8q26 0 56 -8t56 -26t43.5 -47t17.5 -71zM241 237q59 0 82 11t23 44q0 43 -27.5 66.5t-72.5 23.5q-36 0 -60.5 -13t-39.5 -34t-21.5 -47t-6.5 -51h123z" />
    <glyph glyph-name="f" unicode="f" horiz-adv-x="356" 
d="M250 664q30 0 57.5 -4.5t44.5 -9.5q-2 -14 -4.5 -28.5t-5.5 -22.5q-3 -9 -8 -12.5t-20 0.5q-20 3 -44.5 4.5t-46.5 -3.5t-36.5 -20t-14.5 -44v-88h132v-47q0 -14 -5 -19t-17 -5h-110v-343q0 -14 -5.5 -18t-16.5 -4h-56v365h-44v46q0 13 6.5 19t19.5 6h18v109
q0 34 13.5 57t36 37t50 19.5t56.5 5.5z" />
    <glyph glyph-name="g" unicode="g" horiz-adv-x="498" 
d="M250 444q40 0 75 -8t63.5 -18.5t54.5 -25.5v-396q0 -106 -53.5 -154t-160.5 -48q-20 0 -43.5 2.5t-42 7.5t-27 10t-4.5 22l11 50q13 -4 28.5 -7.5t35 -5.5t43.5 -2q45 0 72 9t41 25t18 36.5t4 43.5v36q-18 -7 -45 -13.5t-69 -6.5q-33 0 -70.5 7.5t-69 31t-52.5 66.5
t-21 115q0 15 3 38t11 47.5t23 49t38.5 44.5t57 32t79.5 12zM365 360q-23 8 -45.5 13t-55.5 5q-74 0 -108.5 -36t-34.5 -120q0 -35 6.5 -63t22 -48.5t42 -31.5t65.5 -11q42 0 68 6.5t40 11.5v274z" />
    <glyph glyph-name="h" unicode="h" horiz-adv-x="484" 
d="M267 436q88 0 127.5 -36.5t39.5 -104.5v-272q0 -12 -5 -17.5t-15 -5.5h-59v297q0 77 -88 77q-72 0 -124 -25v-326q0 -12 -4.5 -17.5t-14.5 -5.5h-60v664h52q27 0 27 -26v-232q29 15 61 22.5t63 7.5z" />
    <glyph glyph-name="i" unicode="i" horiz-adv-x="232" 
d="M152 549q0 -23 -14.5 -36.5t-35.5 -13.5q-20 0 -35 13.5t-15 36.5t15 36t35 13q21 0 35.5 -13t14.5 -36zM185 75q9 0 13 -5t4 -14v-56h-60q-13 0 -26.5 4.5t-25 16t-19 30t-7.5 46.5v339h56q12 0 17 -3.5t5 -17.5v-315q0 -11 4.5 -16t11 -7t14.5 -2h13z" />
    <glyph glyph-name="j" unicode="j" horiz-adv-x="280" 
d="M219 549q0 -23 -14.5 -36.5t-35.5 -13.5q-20 0 -35 13.5t-15 36.5t15 36t35 13q21 0 35.5 -13t14.5 -36zM133 436h54q14 0 19.5 -5t5.5 -17v-482q0 -33 -9.5 -62t-29 -50t-49 -33.5t-69.5 -12.5q-20 0 -40.5 3t-40 8t-24.5 11t-1 23l12 46q15 -5 32 -9t51 -4
q31 0 48.5 9.5t26.5 25.5t11.5 38t2.5 47v464z" />
    <glyph glyph-name="k" unicode="k" horiz-adv-x="471" 
d="M131 0h-76v664h51q9 0 17 -6.5t8 -23.5v-634zM213 236l193 -184l26 -26l11 -10q6 -6 3.5 -11t-11.5 -5h-70l-195 182l-25 25q-13 13 -13 30q0 20 13 33l30 28l152 138h64q10 0 13 -5.5t-5 -13.5q-2 -3 -186 -181z" />
    <glyph glyph-name="l" unicode="l" horiz-adv-x="274" 
d="M239 23q4 -17 -11 -22q-12 -4 -30 -6t-37 -2q-32 0 -52 9t-31 25.5t-15.5 40t-4.5 51.5v545h52q14 0 20 -9t6 -23v-526q0 -23 10.5 -33.5t38.5 -10.5q19 0 28.5 2t15.5 4z" />
    <glyph glyph-name="m" unicode="m" horiz-adv-x="774" 
d="M57 385q28 14 59 24.5t68 18.5t79 8q46 0 80 -11t54 -34q36 21 79 33t78 12q80 0 110 -25t40.5 -55.5t10.5 -62.5v-270q0 -8 -2 -12.5t-7 -7.5t-15 -3h-54v292q0 38 -21.5 59.5t-61.5 22.5q-42 0 -74.5 -9.5t-59.5 -21.5q2 -9 3.5 -25t1.5 -26v-270q0 -7 -2 -11.5
t-6.5 -7.5t-12.5 -3h-56v297q-3 75 -85 77q-39 0 -70.5 -6t-57.5 -17v-327q0 -7 -1.5 -12t-6 -8.5t-13.5 -3.5h-57v385z" />
    <glyph glyph-name="n" unicode="n" horiz-adv-x="492" 
d="M51 385q25 14 55.5 24.5t69 18.5t87.5 8q53 0 79 -7.5t41 -21t23 -27.5t13 -28.5t7.5 -32.5t2.5 -37v-259q0 -10 -4.5 -16.5t-14.5 -6.5h-58v290q0 28 -8.5 44.5t-22.5 25.5t-33 11.5t-41 2.5q-28 0 -62 -7.5t-54 -15.5v-328q0 -10 -5.5 -16.5t-18.5 -6.5h-56v385z" />
    <glyph glyph-name="o" unicode="o" horiz-adv-x="501" 
d="M247 444q109 0 156.5 -57.5t47.5 -167.5q0 -53 -10.5 -94t-34.5 -69.5t-63 -44t-96 -17.5q-109 0 -156.5 57.5t-47.5 167.5q0 51 10.5 92.5t34.5 71t63 45.5t96 16zM247 56q39 1 64 12t39 31.5t19 50.5t5 69q0 34 -4 64t-17.5 51.5t-38.5 34t-67 12.5q-38 0 -62 -10
t-38.5 -30t-20 -50.5t-5.5 -71.5q0 -37 4 -66.5t17 -50.5t38 -32.5t67 -13.5z" />
    <glyph glyph-name="p" unicode="p" horiz-adv-x="529" 
d="M58 396q26 11 57 19.5t70.5 14.5t88.5 6q58 0 97 -17t62 -48t32 -71t9 -86q0 -45 -8.5 -85t-32 -71t-62.5 -48t-97 -17q-31 0 -69 6.5t-69 22.5v-204q0 -15 -9.5 -21t-23.5 -6h-45v605zM136 90q27 -11 60.5 -23t79.5 -11q40 -1 65 16.5t36.5 41t15.5 47t4 53.5
q0 31 -4 59.5t-17 50.5t-36.5 35.5t-65.5 13.5q-85 0 -138 -25v-258z" />
    <glyph glyph-name="q" unicode="q" horiz-adv-x="510" 
d="M251 436q63 0 115 -12.5t89 -30.5v-575q0 -13 -6 -19.5t-18 -6.5h-55v231q-29 -16 -61.5 -23t-63.5 -7q-58 0 -97 17.5t-62 48.5t-32 70.5t-9 85.5t9 85t32 70t62 48.5t97 17.5zM376 353q-13 4 -24.5 8t-24.5 6.5t-29.5 4t-38.5 1.5q-42 0 -69.5 -13.5t-40.5 -35.5
t-17 -49.5t-4 -59.5q0 -31 4 -54t17 -45t36.5 -35.5t65.5 -13.5q44 0 71.5 6t53.5 19v261z" />
    <glyph glyph-name="r" unicode="r" horiz-adv-x="407" 
d="M60 308q0 21 11 43.5t33 41t56 31t80 12.5q27 0 52 -2.5t43.5 -7t28.5 -8.5t12 -14t-3 -25l-11 -34q-12 3 -28 6t-38 6t-50 3q-32 0 -52.5 -7t-32.5 -17t-16.5 -21.5t-4.5 -21.5v-270q0 -12 -6.5 -17.5t-20.5 -5.5h-53v308z" />
    <glyph glyph-name="s" unicode="s" horiz-adv-x="453" 
d="M374 375q-2 -9 -8 -15t-19 -1q-14 5 -43.5 9.5t-71.5 4.5q-36 0 -56.5 -5t-30.5 -13.5t-12 -19t-2 -20.5q0 -29 25 -38t75.5 -13t83.5 -13t53 -25.5t27 -44t7 -53.5t-10 -50t-33 -43t-60 -30.5t-93 -11.5q-32 0 -58 3t-47.5 8t-40.5 12v50q0 6 2 10t5.5 6t11.5 0
q20 -5 52 -10.5t77 -5.5q36 0 59 4.5t36 12.5t18 19t5 25t-2.5 25t-13 19t-30.5 13.5t-63.5 9.5t-76.5 14t-52.5 25t-26.5 35t-6 42q0 23 9 46.5t30.5 42.5t56.5 30t86 11q33 0 59.5 -3.5t47 -8.5t37.5 -11z" />
    <glyph glyph-name="t" unicode="t" horiz-adv-x="339" 
d="M147 360v-234q1 -36 18 -49t62 -13q14 0 33 3l25 4q8 2 12 -1.5t4 -14.5v-46q-6 -5 -31.5 -10.5t-63.5 -5.5q-23 0 -47 6.5t-43.5 21.5t-32.5 39t-13 59v442l59 15q5 2 8.5 1t6.5 -5t3 -14v-122h135v-52q0 -13 -5 -18.5t-15 -5.5h-115z" />
    <glyph glyph-name="u" unicode="u" horiz-adv-x="478" 
d="M232 -7q-51 0 -85.5 15t-55 38.5t-29.5 52t-9 56.5v258q0 12 4.5 17.5t14.5 5.5h59v-283q0 -39 27.5 -62.5t73.5 -23.5q44 0 70 6t51 19v321q0 12 6 17.5t15 5.5h57v-392q-22 -15 -50 -25.5t-64.5 -18t-84.5 -7.5z" />
    <glyph glyph-name="v" unicode="v" horiz-adv-x="482" 
d="M443 436q8 0 12 -5.5t0 -16.5l-61 -156l-42 -110l-36 -92q-11 -25 -26 -44t-44 -19q-28 0 -42.5 19t-24.5 44l-140 358q-4 11 0 16.5t14 5.5h63l130 -361l132 361h65z" />
    <glyph glyph-name="w" unicode="w" horiz-adv-x="727" 
d="M692 436q5 0 9 -4t1 -14l-141 -362q-10 -24 -21 -38.5t-22 -19.5t-27 -5q-15 0 -26 6.5t-20.5 19t-20.5 37.5l-55 142l-55 -142q-11 -25 -19.5 -37.5t-21 -19t-28.5 -6.5q-15 0 -26 6.5t-21 19t-21 37.5l-140 358q-4 11 -2.5 16.5t15.5 5.5h64l132 -361l130 361h69
q5 0 9.5 -4.5t0.5 -14.5l-46 -112l84 -230l130 361h69z" />
    <glyph glyph-name="x" unicode="x" horiz-adv-x="484" 
d="M450 26q8 -10 4.5 -18t-17.5 -8h-59l-132 181l-131 -181h-57q-15 0 -19 9t3 17l148 204l-138 183q-7 9 -5.5 16t10.5 7h69l120 -157l120 157h64q13 0 15.5 -5.5t-2.5 -13.5l-140 -187z" />
    <glyph glyph-name="y" unicode="y" horiz-adv-x="529" 
d="M483 436q10 0 13 -4t0 -15l-18 -49l-63 -164l-68 -181q-24 -67 -45.5 -114.5t-46.5 -77.5t-57.5 -44t-79.5 -14q-26 0 -49 5q-14 4 -17.5 10t-1.5 17l12 51q10 -2 26.5 -5t34.5 -3q21 0 36.5 7t27.5 18t20.5 23t18.5 29.5t32 74.5h-24q-12 0 -20 13l-22 53l-35 80l-39 92
l-38 86l-28 65q-12 26 -13 28q-3 7 -1.5 13t14.5 6h66l159 -380l133 380h73z" />
    <glyph glyph-name="z" unicode="z" horiz-adv-x="472" 
d="M438 75v-52q0 -13 -3 -18t-17 -5h-333q-12 0 -19.5 6.5t-7.5 16.5v37l269 308h-234q-11 0 -17 4t-6 18v46h330q15 0 21 -6t6 -16v-46l-258 -293h269z" />
    <glyph glyph-name="nbspace" unicode="&#xa0;" horiz-adv-x="934" 
 />
    <glyph glyph-name="guillemotleft" unicode="&#xab;" horiz-adv-x="466" 
d="M321 168l-114 175l114 169h78l-119 -169l119 -175h-78zM153 168l-115 175l115 169h77l-119 -169l119 -175h-77z" />
    <glyph glyph-name="guillemotright" unicode="&#xbb;" horiz-adv-x="466" 
d="M313 168h-77l119 172l-119 172h77l114 -172zM145 168h-78l119 172l-119 172h78l114 -172z" />
    <glyph glyph-name="commaarabic" unicode="&#x60c;" horiz-adv-x="199" 
d="M110 0q-26 0 -43 18t-17 46q0 19 6 38.5t14 37.5t17 33t14 26l39 -13q20 -8 10 -32l-18 -41q16 -7 26.5 -21t10.5 -34q0 -25 -17 -41.5t-42 -16.5z" />
    <glyph glyph-name="semicolonarabic" unicode="&#x61b;" horiz-adv-x="203" 
d="M111 274q-26 0 -43 18t-17 46q0 18 6 38t14 38t17 33t14 25l39 -12q20 -8 10 -32l-18 -42q16 -6 26.5 -20t10.5 -34q0 -26 -17 -42t-42 -16zM60 51q0 21 14.5 35.5t35.5 14.5q22 0 36.5 -14.5t14.5 -35.5t-14.5 -35.5t-36.5 -14.5q-21 0 -35.5 14.5t-14.5 35.5z" />
    <glyph glyph-name="questionarabic" unicode="&#x61f;" horiz-adv-x="422" 
d="M228 51q0 -22 14.5 -36.5t35.5 -14.5t35.5 14.5t14.5 36.5q0 21 -14.5 35.5t-35.5 14.5t-35.5 -14.5t-14.5 -35.5zM317 175q0 -12 -7 -20t-18 -8h-53v112q-59 -4 -98.5 7t-63.5 33.5t-34.5 56t-10.5 75.5q0 46 12.5 81.5t34.5 60.5t52.5 38t65.5 13q29 0 54.5 -3.5
t45.5 -8.5q23 -5 42 -12q-13 -43 -15 -48q-4 -11 -11 -15t-24 -1q-35 8 -85 8q-49 0 -74 -26t-25 -87q0 -51 26.5 -74.5t92.5 -23.5h68q11 0 18 -8t7 -20v-130z" />
    <glyph glyph-name="tatweelarabic" unicode="&#x640;" horiz-adv-x="161" 
d="M-9 0v75h176v-75h-176z" />
    <glyph glyph-name="maddaabove" unicode="&#x653;" 
d="M193 695q-23 -20 -53 -25t-59 13q-13 7 -23 15t-18 16q-9 9 -17 18q18 16 20 18q6 6 14 5.5t20 -10.5q8 -6 18 -12.5t20.5 -9.5t21.5 -1t21 11q14 14 30 19.5t32 5.5q32 0 58 -18t46 -41l-22 -24q-5 -5 -12.5 -4t-16.5 9q-23 20 -41.5 25.5t-38.5 -10.5z" />
    <glyph glyph-name="zeroarabic" unicode="&#x660;" horiz-adv-x="542" 
d="M273 -6q-75 0 -119.5 27.5t-68.5 74.5t-31 110.5t-7 134.5t9.5 131.5t35 104.5t69 69t112.5 25q73 0 117.5 -25t68.5 -69t32 -104.5t8 -131.5t-4.5 -134.5t-26.5 -110.5t-67.5 -74.5t-127.5 -27.5zM273 605q-48 0 -77.5 -17t-45 -50.5t-20.5 -83t-5 -113.5
q0 -70 5 -121.5t20.5 -85t45 -50t77.5 -16.5t77.5 15.5t45 48.5t21 85t5.5 124q0 63 -5.5 112.5t-21 83t-45 51t-77.5 17.5z" />
    <glyph glyph-name="onearabic" unicode="&#x661;" horiz-adv-x="309" 
d="M207 666q24 0 24 -27v-616q0 -11 -2.5 -17t-16.5 -6h-58v592h-85q-11 0 -16 5t-5 21v48h159z" />
    <glyph glyph-name="twoarabic" unicode="&#x662;" horiz-adv-x="513" 
d="M74 625q29 12 61 23q27 8 61.5 15.5t69.5 7.5q54 0 91.5 -11.5t61 -32.5t34 -49.5t10.5 -62.5q0 -32 -12 -61.5t-34.5 -60.5t-53.5 -65l-70 -75l-67 -74l-51 -56q-25 -27 -43 -49h325q9 0 15.5 -2.5t6.5 -16.5v-55h-367q-25 0 -41 12.5t-21.5 31.5t-0.5 40.5t22 38.5
l38 39l45 48l48 52l47 49q63 64 102.5 112t39.5 89q0 48 -29 70.5t-101 22.5q-47 0 -82 -11.5t-58 -21.5q-12 -6 -17 -5t-9 11z" />
    <glyph glyph-name="threearabic" unicode="&#x663;" horiz-adv-x="484" 
d="M352 350q24 -6 41.5 -17t29 -29.5t17 -46.5t5.5 -67q0 -40 -7 -74.5t-29.5 -60t-65 -40.5t-112.5 -15q-32 0 -66 5.5t-62 13.5q-33 9 -63 20l18 54q4 16 23 9q17 -6 57.5 -17t91.5 -11q33 0 58 4.5t41.5 17.5t25 36t8.5 60q0 28 -4 50t-15 37t-32 22.5t-54 7.5h-137v55
q0 13 7.5 17.5t18.5 4.5h85q35 0 57.5 5t36 18.5t19 36.5t5.5 58q0 58 -34 79.5t-90 21.5q-41 0 -76 -10l-62 -17q-12 -3 -17.5 -2t-8.5 11l-11 51q24 9 52 16q24 6 55.5 11.5t68.5 5.5q66 0 106 -15t61 -39t28 -54.5t7 -61.5q0 -24 -3 -47.5t-11 -44t-23.5 -36.5t-39.5 -23
z" />
    <glyph glyph-name="fourarabic" unicode="&#x664;" horiz-adv-x="517" 
d="M463 244q15 0 20 -7t5 -17v-50h-80v-156q-1 -13 -7.5 -17.5t-16.5 -4.5h-54v178h-242q-12 0 -27 7.5t-25 22t-11 37t13 41.5l238 342q19 25 38.5 38t46 9.5t37 -20t10.5 -42.5v-361h55zM330 581l-229 -338h229v338z" />
    <glyph glyph-name="fivearabic" unicode="&#x665;" horiz-adv-x="501" 
d="M448 618q0 -10 -3 -17t-18 -7h-237l-55 -206h129q48 0 84 -9t60 -31t36 -58.5t12 -90.5q0 -51 -15 -90t-42.5 -65t-65.5 -39t-83 -13q-41 0 -76 7t-61 16q-31 11 -56 24l19 54q3 10 10 10t14 -3q4 -2 16.5 -7t31.5 -10.5t42.5 -10t49.5 -4.5q50 0 78.5 12t42.5 31
t17.5 42t3.5 46q0 34 -8 57t-23 36.5t-35.5 19t-44.5 5.5h-160q-36 0 -47.5 20t-7.5 42l60 222q6 25 17 38t23.5 19t25 7t23.5 1h243v-48z" />
    <glyph glyph-name="sixarabic" unicode="&#x666;" horiz-adv-x="517" 
d="M276 403q39 0 75.5 -5.5t64.5 -26t45 -60.5t17 -108q0 -45 -11.5 -84t-36.5 -67t-65 -44t-97 -16q-61 0 -102.5 20.5t-66.5 53t-35.5 73.5t-10.5 83v226q0 63 22.5 106t59 69t82 37t91.5 11q29 0 52 -3t39.5 -7t28.5 -9q-13 -39 -15 -47q-6 -16 -25 -10q-8 2 -30.5 5
t-51.5 5q-86 0 -131 -38t-45 -107v-90q23 9 46.5 15.5t49.5 12t50 5.5zM268 67q47 0 74.5 12t41 31.5t17 44t3.5 48.5q0 31 -6 55.5t-20.5 40.5t-39 24.5t-62.5 8.5q-33 0 -60 -4.5t-47.5 -10t-37.5 -12.5v-79q0 -41 6 -70.5t22 -49.5t42 -29.5t67 -9.5z" />
    <glyph glyph-name="sevenarabic" unicode="&#x667;" horiz-adv-x="457" 
d="M351 666q60 0 74 -31.5t-9 -91.5l-258 -543h-63q-11 0 -13.5 7.5t-0.5 15.5q1 1 274 569h-308q-16 0 -19.5 5t-3.5 19v50h327z" />
    <glyph glyph-name="eightarabic" unicode="&#x668;" horiz-adv-x="520" 
d="M386 357q32 -13 52.5 -32t32.5 -41.5t16.5 -48t4.5 -51.5q0 -38 -13 -72.5t-40.5 -61t-72 -42.5t-107.5 -16q-56 0 -98.5 14.5t-71 40.5t-43 61.5t-14.5 78.5q0 60 29 104t89 66q-22 11 -40 30q-15 17 -27.5 44t-12.5 68q0 47 15 80t41 53.5t61 29.5t75 9q94 0 145 -42
t51 -125q0 -42 -17 -81.5t-55 -65.5zM262 602q-60 0 -89 -25t-29 -70q0 -38 17.5 -62.5t39.5 -38.5q26 -17 58 -26q34 6 60 22q23 14 42 39t19 67q0 45 -27.5 69.5t-90.5 24.5zM259 67q33 0 61 7.5t48.5 23.5t32.5 40t12 56q0 51 -41 85t-113 46q-25 -7 -51 -17.5t-47 -25.5
t-34 -36.5t-13 -51.5q0 -37 14.5 -61.5t36 -39t47 -20.5t47.5 -6z" />
    <glyph glyph-name="ninearabic" unicode="&#x669;" horiz-adv-x="491" 
d="M246 245q-41 0 -78.5 9.5t-66.5 32t-46.5 61t-17.5 97.5q0 53 15 95t42 71t63.5 44.5t80.5 15.5q72 0 114 -20t64 -59t28.5 -97t6.5 -134v-73q0 -41 -3 -82t-15 -79.5t-38 -68.5t-69 -48t-109 -18q-23 0 -46 3.5t-42.5 8.5t-38.5 13q2 8 5.5 24.5t5.5 24.5q4 14 11.5 16
t16.5 0l13 -4l22.5 -4.5t27 -4.5t28.5 -2q43 0 70 10t43.5 25.5t25 34t13.5 35.5t7 36t2.5 37t-0.5 37q-15 -11 -33.5 -18.5t-43.5 -13t-58 -5.5zM242 605q-69 0 -98.5 -38t-29.5 -110q0 -24 2.5 -49.5t15.5 -46t39 -33.5t73 -13q32 0 57 5t43 11.5t33 15.5v117q0 27 -6 52
t-21 45t-41.5 32t-66.5 12z" />
    <glyph glyph-name="zeronojoin" unicode="&#x200c;" horiz-adv-x="21" 
d="M21 0v743h-21v-743h21z" />
    <glyph glyph-name="zerojoin" unicode="&#x200d;" horiz-adv-x="21" 
d="M73 682l-49 49l49 49l-14 14l-49 -50l-48 50l-14 -14l49 -49l-49 -49l14 -13l38 38v-707h21v707l38 -38z" />
    <glyph glyph-name="lefttoright" unicode="&#x200e;" horiz-adv-x="21" 
d="M138 731l-62 63l-14 -14l37 -37h-99v-743h21v722h80l-39 -39l14 -14z" />
    <glyph glyph-name="righttoleft" unicode="&#x200f;" horiz-adv-x="21" 
d="M21 0v743h-99l37 37l-14 14l-63 -63l63 -62l14 14l-39 39h80v-722h21z" />
    <glyph glyph-name="hyphenminus" unicode="&#x2010;" horiz-adv-x="588" 
d="M61 200h467v39h-467v-39z" />
    <glyph glyph-name="quoteleft" unicode="&#x2018;" horiz-adv-x="199" 
d="M87 662l22 -22q-34 -35 -45.5 -59.5t-11.5 -56.5q31 0 49.5 -15t18.5 -43q0 -22 -15.5 -37.5t-37.5 -15.5q-26 0 -46.5 21.5t-20.5 54.5q0 90 87 173z" />
    <glyph glyph-name="quoteright" unicode="&#x2019;" horiz-adv-x="291" 
d="M204 413l-22 22q34 36 46 60t12 56q-31 0 -50 15t-19 43q0 22 16 37.5t38 15.5q25 0 45.5 -21.5t20.5 -54.5q0 -92 -87 -173z" />
    <glyph glyph-name="quotedblleft" unicode="&#x201c;" horiz-adv-x="353" 
d="M241 662l23 -22q-34 -35 -46 -59.5t-12 -56.5q31 0 50 -15t19 -43q0 -22 -16 -37.5t-38 -15.5q-25 0 -46 21.5t-21 54.5q0 90 87 173zM87 662l22 -22q-34 -35 -45.5 -59.5t-11.5 -56.5q31 0 49.5 -15t18.5 -43q0 -22 -15.5 -37.5t-37.5 -15.5q-26 0 -46.5 21.5
t-20.5 54.5q0 90 87 173z" />
    <glyph glyph-name="quotedblright" unicode="&#x201d;" horiz-adv-x="446" 
d="M204 413l-22 22q34 36 46 60t12 56q-31 0 -50 15t-19 43q0 22 16 37.5t38 15.5q25 0 45.5 -21.5t20.5 -54.5q0 -92 -87 -173zM359 413l-22 22q34 35 45.5 59.5t11.5 56.5q-31 0 -49.5 15t-18.5 43q0 22 15.5 37.5t37.5 15.5q26 0 46.5 -21.5t20.5 -54.5q0 -90 -87 -173z
" />
    <glyph glyph-name="delete" unicode="&#x2421;" horiz-adv-x="729" 
d="M693 59v32h-131v235h-36v-267h167zM492 59v32h-163v90h147v32h-147v81h158v32h-195v-267h200zM261 194q0 110 -82 128q-13 4 -47 4h-93v-267h97q23 0 43 5q82 20 82 130zM224 194q0 -58 -27 -85q-18 -18 -64 -18h-58v203h57q25 0 45 -4q47 -20 47 -96z" />
    <glyph glyph-name="zerowidthnobreakspace" unicode="&#xfeff;" 
 />
    <glyph glyph-name="CR" horiz-adv-x="333" 
 />
    <glyph glyph-name="_4" horiz-adv-x="280" 
 />
    <glyph glyph-name="_13" horiz-adv-x="273" 
 />
    <glyph glyph-name="kashidaautoarabic" horiz-adv-x="117" 
d="M-9 37h135v-37h-135v37z" />
    <glyph glyph-name="nonbreakingspace" horiz-adv-x="623" 
 />
    <glyph glyph-name="_246" 
 />
    </font>
</defs>
</svg>
